<?xml version="1.0" standalone="no"?>
<!DOCTYPE svg PUBLIC "-//W3C//DTD SVG 1.1//EN" "http://www.w3.org/Graphics/SVG/1.1/DTD/svg11.dtd" >
<svg xmlns="http://www.w3.org/2000/svg">
<metadata>
This is a custom SVG webfont generated by Font Squirrel.
Copyright   : Copyright  1997 2001 Berthold LLC All rights reserved AkzidenzGrotesk is a trademark of Berthold Types Limited
</metadata>
<defs>
<font id="AkzidenzGroteskBQRegular" horiz-adv-x="1067" >
<font-face units-per-em="2048" ascent="1638" descent="-410" />
<missing-glyph horiz-adv-x="555" />
<glyph unicode=" "  horiz-adv-x="555" />
<glyph unicode="&#x09;" horiz-adv-x="555" />
<glyph unicode="&#xa0;" horiz-adv-x="555" />
<glyph unicode="!" horiz-adv-x="555" d="M236 0v184h161v-184h-161zM236 879v567h161v-590l-49 -555h-63z" />
<glyph unicode="&#x22;" horiz-adv-x="710" d="M90 1522h182l-57 -602h-65zM438 1522h180l-57 -602h-63z" />
<glyph unicode="#" horiz-adv-x="1366" d="M86 469v158h305l33 221h-291v158h311l64 438h164l-64 -438h226l65 438h160l-62 -438h283v-158h-303l-33 -221h285v-158h-307l-68 -469h-162l68 469h-228l-67 -469h-166l72 469h-285zM553 627h229l31 221h-227z" />
<glyph unicode="$" horiz-adv-x="1280" d="M41 418l209 22q23 -111 87 -180.5t124 -95.5q43 -23 127 -39v518q-2 0 -27.5 8t-55.5 18.5t-67 25t-74.5 34t-66.5 39.5q-166 119 -166 299q0 94 47 174q106 186 397 223q8 2 13 2v226h137l2 -226q20 -6 82 -20q117 -29 211 -103q68 -53 106 -112q39 -55 66 -152 l-191 -18q-45 147 -170 215q-49 25 -106 33l2 -484q139 -41 229 -84q274 -133 273 -362q0 -102 -54.5 -190.5t-146.5 -143.5q-137 -82 -278 -82h-25v-244h-137v244q-199 29 -324 113q-172 117 -223 342zM338 1090q0 -53 24 -97q45 -74 226 -129v451q-63 -6 -109 -25 q-63 -27 -102 -79.5t-39 -120.5zM725 604l2 -485q16 0 45 4q141 16 207 113q37 51 37 116q0 90 -67.5 146.5t-223.5 105.5z" />
<glyph unicode="%" horiz-adv-x="1835" d="M53 926q0 111 36 223.5t108 177.5q86 72 190 72q72 0 141 -39q195 -109 195 -438q0 -256 -127 -379q-84 -84 -207 -84q-131 0 -217 96q-119 133 -119 371zM188 934q0 -186 60 -279q51 -78 141 -77.5t146 79.5q55 82 55 265q0 174 -49 260q-55 100 -156 100 q-78 0 -131 -70q-66 -83 -66 -278zM508 -6l651 1403l111 -54l-649 -1402zM1071 446q0 236 96.5 356t235.5 120q137 0 237.5 -124t98.5 -362q0 -43 -4 -92t-41 -150.5t-105 -152.5q-78 -59 -182 -59q-164 0 -256 137q-80 120 -80 327zM1202 451q0 -170 58 -263 q53 -90 149 -90q82 0 131 68q61 82 66 270q2 184 -58 281q-53 84 -147 84q-94 -4 -141 -82q-60 -92 -58 -268z" />
<glyph unicode="&#x26;" horiz-adv-x="1236" d="M78 379q0 154 104 280q41 47 80 76q25 18 77 48t77 48q-4 8 -14.5 37t-14.5 39.5t-12 35t-11.5 37.5t-7.5 34.5t-6 42t-2 41.5q0 143 91 240.5t233 97.5q125 0 211 -82t86 -207q0 -59 -23 -117q-41 -96 -174 -196q-23 -16 -117 -70q39 -86 125 -232q63 -106 80 -133 q61 117 96 267h158q-29 -195 -156 -404q76 -106 199 -106q18 0 57 6v-170q-43 -8 -77 -8q-170 0 -299 147q-43 -37 -82 -61q-135 -88 -283 -88q-90 0 -172 38q-82 37 -152.5 124.5t-70.5 234.5zM252 399q0 -47 18 -92q63 -166 236 -166q123 2 235 107q-6 8 -143 235 q-90 154 -115 207q-57 -27 -94 -53q-137 -101 -137 -238zM512 1133q4 -96 68 -226q117 51 172 121t55 139q0 31 -12 64q-33 80 -125 80q-35 0 -70 -19q-88 -46 -88 -159z" />
<glyph unicode="'" horiz-adv-x="362" d="M90 1522h182l-57 -602h-65z" />
<glyph unicode="(" horiz-adv-x="645" d="M82 657q0 371 192 666q55 82 127 158q74 76 181 153l67 -82q-115 -104 -174 -186q-203 -276 -203 -694q0 -281 102.5 -526.5t278.5 -385.5l-65 -94q-12 10 -26.5 22.5t-18.5 14.5q-129 102 -232 242q-98 133 -151 278q-78 205 -78 434z" />
<glyph unicode=")" horiz-adv-x="653" d="M8 1546l68 94q12 -10 26.5 -22t18.5 -14q125 -98 229 -242q102 -141 154 -279q76 -199 76 -434q0 -219 -78 -434q-82 -221 -244 -389q-66 -70 -180 -154l-68 80q72 66 104.5 101.5t69.5 87.5q205 279 205 696q0 283 -102.5 527.5t-278.5 381.5z" />
<glyph unicode="*" horiz-adv-x="714" d="M37 1178l35 116l209 -55v211h127v-215l210 70l44 -111l-213 -76l129 -170l-99 -76l-135 175l-121 -175l-102 74l121 174z" />
<glyph unicode="+" horiz-adv-x="1482" d="M193 537v159h458v467h180v-467h461v-159h-461v-469h-180v469h-458z" />
<glyph unicode="," horiz-adv-x="468" d="M129 0v223h203v-123q0 -231 -84 -419h-96q68 195 67 319h-90z" />
<glyph unicode="-" horiz-adv-x="757" d="M92 537v155h574v-155h-574z" />
<glyph unicode="." horiz-adv-x="468" d="M131 0v231h203v-231h-203z" />
<glyph unicode="/" horiz-adv-x="681" d="M27 0l477 1438h153l-473 -1438h-157z" />
<glyph unicode="0" horiz-adv-x="1193" d="M100 680q0 416 215 608q119 104 279 105q121 0 225 -64q119 -72 199 -231.5t78 -409.5q0 -422 -226 -606q-115 -94 -274 -94q-125 0 -225 61q-117 72 -194 228.5t-77 402.5zM283 688q0 -285 102 -428q78 -115 215 -113q78 0 135 37q96 63 136 210t40 294q0 291 -108 438 q-78 104 -203 105q-111 0 -184 -74q-43 -39 -76 -113q-57 -133 -57 -356z" />
<glyph unicode="1" horiz-adv-x="1193" d="M242 1010v127q233 0 309 120q35 53 43 123h137v-1380h-192v1010h-297z" />
<glyph unicode="2" horiz-adv-x="1193" d="M158 961q0 209 129 325q121 106 317 107q176 0 297 -103q147 -123 148 -334q0 -215 -187 -424q-66 -76 -155 -151q-82 -72 -162 -129q-47 -33 -142 -94h662v-158h-903l2 176q29 14 86 47q160 102 340 273q125 115 196.5 226.5t71.5 246.5q0 123 -68.5 193.5t-191.5 70.5 q-141 0 -207 -84q-16 -23 -37 -74q-16 -55 -16 -114q0 -66 24 -164h-180q-24 84 -24 164z" />
<glyph unicode="3" horiz-adv-x="1193" d="M82 457h184q12 -106 25 -144q59 -162 299 -161q29 0 54.5 2t74.5 15t83 36.5t61.5 74t27.5 119.5q0 86 -47 144q-68 88 -269 88q-61 0 -122 -6l2 166q221 -18 315 45q88 59 88 172q0 70 -37 122q-76 111 -241 111q-150 0 -222 -115q-39 -66 -47 -208l-182 8q8 121 27 182 q25 76 69.5 132t90.5 85t103.5 45t92.5 19.5t70 3.5q109 0 204 -33q78 -27 132.5 -74t79 -101.5t34.5 -96t10 -80.5q0 -133 -65 -211q-29 -37 -103 -82q47 -20 84 -49q125 -102 125 -281q0 -158 -106 -264q-129 -133 -377 -133q-39 0 -77 3t-110.5 21.5t-128 50t-109.5 98 t-77 156.5q-14 56 -16 140z" />
<glyph unicode="4" horiz-adv-x="1193" d="M86 332v166l659 882h144v-893h201v-155h-201v-332h-178v332h-625zM272 487h439l8 619z" />
<glyph unicode="5" horiz-adv-x="1193" d="M96 430l183 12q4 -47 28 -108q49 -125 158 -168q51 -20 117 -21q70 0 125 25q72 31 125 108.5t53 210.5q0 70 -15 115q-16 61 -60 110.5t-101 71.5q-61 20 -123 21q-94 0 -158 -43q-16 -8 -39 -31q-51 -49 -76 -104h-166l46 751h784v-161h-645l-19 -363q135 113 305 111 q104 0 189 -37q127 -57 197.5 -180t70.5 -267q0 -154 -80 -283.5t-219 -181.5q-82 -31 -188 -30q-109 0 -196 31.5t-140 84t-83 99.5t-48 96q-17 51 -25 131z" />
<glyph unicode="6" horiz-adv-x="1193" d="M127 674q0 236 66 407q29 78 83 150q88 104 195 137q74 25 152 25q84 0 163 -29q111 -41 167.5 -120t88.5 -208l-178 -24q-29 162 -145 209q-43 16 -94 16q-104 0 -179 -59q-63 -55 -102 -166q-31 -88 -41 -269l16 21q16 20 27 31q117 117 299 116q96 0 176 -34 q41 -18 79 -46t82 -75t70.5 -123t26.5 -166q0 -98 -32 -186q-51 -137 -164 -215t-262 -78q-246 0 -383 205q-111 164 -111 481zM332 451q0 -59 20 -117q10 -27 28.5 -53.5t49.5 -58.5t82 -51t113 -19q57 0 112 22q80 35 122 113t40 168q0 47 -16 102q-18 59 -62.5 106.5 t-101.5 67.5q-45 14 -101 14q-66 0 -112 -20q-82 -33 -128 -108.5t-46 -165.5z" />
<glyph unicode="7" horiz-adv-x="1193" d="M197 954v426h845v-198q0 -18 -2 -35t-4 -27t-11 -28.5t-13 -27.5t-22.5 -39t-26.5 -46l-72 -125q-66 -119 -117 -223q-27 -55 -76 -166q-53 -123 -73 -186q-23 -66 -39 -148q-16 -66 -25 -131h-217q47 367 418 944l61 96q45 72 56.5 99.5t11.5 77.5h-547v-263h-147z" />
<glyph unicode="8" horiz-adv-x="1193" d="M106 412q0 162 105 266q23 23 84 63q-154 102 -154 285q0 117 62 209q115 158 397 158q279 0 387 -152q66 -88 66 -215q0 -154 -103 -246q-25 -20 -53 -39q39 -25 61.5 -42t59.5 -57t55.5 -96.5t18.5 -129.5q0 -117 -52 -207q-123 -221 -442 -221q-295 0 -424 196 q-68 105 -68 228zM293 414q0 -82 41 -142q82 -117 268 -116q154 0 234 84q72 76 65 178q0 109 -74 172q-78 70 -235 69q-160 0 -229.5 -74.5t-69.5 -170.5zM324 1030q0 -59 28 -108q59 -109 246 -109q188 0 246 113q25 45 24 102q0 102 -77 158q-70 49 -201 49 q-164 0 -232 -90q-34 -47 -34 -115z" />
<glyph unicode="9" horiz-adv-x="1193" d="M106 909q0 211 127 344q129 133 340 133q199 0 324 -118q178 -170 178 -566q0 -362 -155 -557q-59 -74 -121 -106q-94 -51 -236 -51q-76 0 -129 16q-152 47 -233 195q-29 49 -51 133l178 33q8 -63 51 -127q66 -94 196 -95q111 0 189 74q68 66 101.5 181.5t33.5 224.5 q-137 -176 -342 -177q-201 0 -326 130t-125 333zM289 899q0 -76 22 -125q25 -61 90.5 -112.5t176.5 -51.5q66 0 118 21q66 23 123.5 82t61.5 172q0 70 -17 125q-33 104 -108.5 163.5t-184.5 59.5q-96 0 -163 -51q-119 -86 -119 -283z" />
<glyph unicode=":" horiz-adv-x="555" d="M217 0v231h203v-231h-203zM217 772v229h203v-229h-203z" />
<glyph unicode=";" horiz-adv-x="555" d="M219 0v227h203v-125q0 -209 -51 -350q-4 -10 -14.5 -34.5t-14.5 -34.5h-92q51 160 51 317h-82zM219 778v226h203v-226h-203z" />
<glyph unicode="&#x3c;" horiz-adv-x="1482" d="M233 526v183l953 481v-180l-787 -389l787 -388v-186z" />
<glyph unicode="=" horiz-adv-x="1482" d="M203 334v158h1077v-158h-1077zM203 717v160h1077v-160h-1077z" />
<glyph unicode="&#x3e;" horiz-adv-x="1482" d="M295 43v182l786 387l-786 387v187l952 -477v-185z" />
<glyph unicode="?" horiz-adv-x="1150" d="M145 965q0 213 101 331q133 162 360 162q180 0 318 -112q154 -127 153 -330q0 -141 -66.5 -228.5t-142.5 -123.5q-70 -33 -180 -46v-311h-162l2 484h56q127 0 200 38q47 25 76 64q47 61 47 145q0 78 -39 140q-31 47 -100.5 87t-167.5 40q-139 0 -209 -88 q-68 -80 -67 -220v-32h-179zM514 0v199h182v-199h-182z" />
<glyph unicode="@" horiz-adv-x="1835" d="M141 479q0 258 123 483.5t341 360.5t478 135q272 0 441.5 -158.5t169.5 -431.5q0 -152 -47 -299q-51 -158 -167 -292t-259 -134q-80 0 -126 48.5t-44 127.5q-133 -174 -295 -174q-131 0 -199 97.5t-68 234.5q0 145 62.5 290.5t175.5 223.5q94 68 195 68q82 0 143 -46 t92 -126l31 127h139l-67 -307q-57 -258 -58 -353q0 -88 63.5 -88t133.5 84q84 98 130 236.5t46 275.5q0 227 -135 356.5t-365 129.5q-225 0 -415.5 -123t-297 -321.5t-106.5 -422.5q0 -289 188.5 -455.5t481.5 -166.5q377 0 686 299l67 -84q-328 -328 -751 -328 q-184 0 -357 72q-211 90 -320.5 260t-109.5 401zM651 487q0 -88 41 -149.5t123 -61.5q104 0 175 95.5t100 214.5q16 76 16 145q0 82 -46 140.5t-126 58.5q-63 0 -129 -53q-74 -63 -114 -173.5t-40 -216.5z" />
<glyph unicode="A" horiz-adv-x="1323" d="M20 0l551 1446h201l526 -1446h-202l-158 442h-551l-162 -442h-205zM449 604h432l-211 604z" />
<glyph unicode="B" horiz-adv-x="1409" d="M158 0v1446h680q190 0 311 -105q119 -100 119 -266q0 -145 -99 -241q-37 -35 -77 -56q-18 -8 -45 -16q70 -20 114 -51q150 -100 150 -312q-2 -170 -88 -258t-189 -116q-80 -25 -278 -25h-33h-565zM340 170h428q131 0 174 12q37 6 74 29q96 59 96 203q0 61 -18 104 q-49 115 -174 144q-55 12 -226 12h-354v-504zM340 838h303q211 0 264 14q57 12 107.5 63.5t50.5 149.5q0 119 -90 174q-41 25 -83 31t-140 6h-412v-438z" />
<glyph unicode="C" horiz-adv-x="1564" d="M100 723q0 342 196 551t535 209q348 0 533 -215q76 -90 127 -228l-195 -39q-29 82 -65 136q-137 193 -402 192q-113 0 -211 -41q-86 -37 -147 -101.5t-91 -125t-46.5 -137t-18.5 -113.5t-2 -78q0 -238 90.5 -378t217.5 -193q94 -37 210 -37q82 0 147.5 18.5t142.5 70.5 t130 151q37 72 60 184l209 -25q-10 -55 -35 -114q-18 -45 -47 -94.5t-81 -115t-135 -120.5t-184 -84q-109 -33 -231 -33q-291 0 -479 174q-228 213 -228 586z" />
<glyph unicode="D" horiz-adv-x="1449" d="M160 0v1446h573q229 0 389 -135q225 -193 226 -590q0 -143 -25 -248q-12 -53 -33.5 -104.5t-66.5 -123t-127 -131t-189 -87.5q-84 -25 -241 -25q-25 0 -71 -1t-69 -1h-366zM358 168h342q209 0 326 135q125 141 125 420q0 264 -113 403q-37 43 -71 68q-59 43 -123 59 q-74 23 -258 23h-228v-1108z" />
<glyph unicode="E" horiz-adv-x="1236" d="M162 0v1446h995v-170h-811v-447h705v-167h-705v-494h836v-168h-1020z" />
<glyph unicode="F" horiz-adv-x="1110" d="M160 0v1446h927v-172h-735v-426h684v-168h-684v-680h-192z" />
<glyph unicode="G" horiz-adv-x="1662" d="M102 705q0 328 197 548q209 229 549 230q145 0 266 -43q213 -72 344 -269q31 -45 60 -108l-201 -51q-35 98 -92 162q-131 150 -371 149q-246 0 -391 -166q-147 -168 -148 -430q0 -231 113 -391q150 -205 422 -205q182 0 319 94q180 125 181 361v16h-504v162h672v-764 h-168v203q-45 -59 -58 -72q-168 -168 -471 -168q-182 0 -329 70q-63 31 -124 79t-124.5 126.5t-102.5 200t-39 266.5z" />
<glyph unicode="H" horiz-adv-x="1492" d="M162 0v1446h190v-615h787v615h194v-1446h-194v662h-787v-662h-190z" />
<glyph unicode="I" horiz-adv-x="468" d="M137 0v1446h195v-1446h-195z" />
<glyph unicode="J" horiz-adv-x="768" d="M18 -16v211l25 -13q57 -29 145 -28q43 0 64 4q88 14 127 71q23 33 28 81t5 157v979h196v-1063q0 -74 -3 -110.5t-20.5 -88t-54.5 -94.5q-109 -127 -315 -127q-91 1 -197 21z" />
<glyph unicode="K" horiz-adv-x="1280" d="M137 0v1446h193v-707l686 707h237l-585 -598l610 -848h-236l-507 713l-205 -209v-504h-193z" />
<glyph unicode="L" d="M139 0v1446h193v-1274h700v-172h-893z" />
<glyph unicode="M" horiz-adv-x="1662" d="M139 0v1446h250l442 -1186l447 1186h250v-1446h-193l27 1212l-457 -1212h-149l-449 1194l21 -1194h-189z" />
<glyph unicode="N" horiz-adv-x="1449" d="M160 0v1446h182l782 -1159l-8 1159h174v-1446h-174l-792 1176l18 -1176h-182z" />
<glyph unicode="O" horiz-adv-x="1662" d="M104 725q0 328 181 530q100 111 245.5 169.5t303.5 58.5q154 0 286 -51q217 -84 329 -270.5t112 -426.5q0 -299 -152 -504q-201 -268 -582 -268q-301 0 -497 184q-226 211 -226 578zM313 723q0 -225 97 -383q43 -66 92 -109q63 -55 139 -84q88 -33 197 -32q123 0 219 43 q123 57 210 198q85 138 85 368v11q0 248 -113 402q-139 190 -405 190q-274 -2 -410 -199q-111 -159 -111 -405z" />
<glyph unicode="P" horiz-adv-x="1280" d="M156 0v1446h624q74 0 112 -2t93 -16.5t100 -43.5q172 -109 172 -346q0 -145 -72.5 -257.5t-207.5 -149.5q-66 -18 -217 -19h-418v-612h-186zM342 784h403q113 0 156 11q84 23 125 90t41 157q0 55 -14 97q-37 100 -148 131q-43 10 -117 10h-446v-496z" />
<glyph unicode="Q" horiz-adv-x="1662" d="M96 723q0 57 8.5 116.5t33 156t90 190.5t161.5 164q186 133 447 133q281 0 471 -154q254 -211 254 -612q0 -246 -134 -455l224 -192l-123 -144l-230 195q-213 -158 -473 -158q-279 0 -471 158q-258 213 -258 602zM307 729q0 -334 201 -500q131 -111 328 -110 q240 0 383 170q135 164 135 434q0 242 -111 401q-145 209 -414 209q-219 0 -364 -151q-158 -168 -158 -453z" />
<glyph unicode="R" horiz-adv-x="1366" d="M160 0v1446h538h138q244 -10 356 -146q88 -106 88 -276q0 -252 -193 -350q-57 -31 -147 -47l406 -627h-230l-395 614h-373v-614h-188zM348 776h385q78 0 118 3t99.5 25.5t93.5 69.5q45 61 46 150q0 152 -115 221q-35 20 -86 30.5t-74 10.5h-92h-375v-510z" />
<glyph unicode="S" horiz-adv-x="1366" d="M76 463l207 26q8 -166 98 -260q111 -115 317 -114q76 0 133 16q227 61 228 272q0 104 -74 164q-57 45 -201 76l-125 27q-223 47 -317 100q-197 106 -197 311q0 168 138 283q143 119 387 119q246 0 387 -109q76 -57 117 -129q45 -78 67 -207l-194 -12q-4 47 -15 86 q-27 92 -111.5 156.5t-246.5 64.5q-201 0 -281 -96q-49 -55 -49 -131q0 -59 35 -107q8 -10 18.5 -20t19.5 -18.5t25.5 -16.5t24.5 -13t27.5 -12.5t26.5 -9.5t29.5 -8t27.5 -7l28 -7l25 -6l160 -39q47 -10 112 -29q221 -51 309 -197q53 -90 54 -200q0 -178 -121 -297 q-160 -156 -457 -156q-240 0 -395 100q-68 43 -117 109q-84 113 -100 291z" />
<glyph unicode="T" horiz-adv-x="1110" d="M23 1278v168h1058v-168h-432v-1278h-192v1278h-434z" />
<glyph unicode="U" horiz-adv-x="1409" d="M156 551v895h192v-868q0 -127 6 -168q16 -125 95 -199q49 -47 120 -70q51 -14 125 -14q127 0 215 57q68 43 101.5 115t40 129t6.5 154v864h194v-924q0 -111 -12 -168q-35 -190 -211 -303q-141 -88 -336 -88q-135 0 -235 39q-98 37 -173 115t-108 178q-20 70 -20 256z" />
<glyph unicode="V" horiz-adv-x="1236" d="M23 1446h204l383 -1208l398 1208h204l-510 -1446h-190z" />
<glyph unicode="W" horiz-adv-x="2091" d="M37 1446h203l342 -1198l366 1198h189l381 -1198l337 1198h199l-442 -1446h-189l-381 1198l-368 -1198h-193z" />
<glyph unicode="X" horiz-adv-x="1280" d="M43 0l481 758l-454 688h229l338 -520l324 520h227l-443 -688l494 -758h-227l-375 588l-371 -588h-223z" />
<glyph unicode="Y" horiz-adv-x="1280" d="M29 1446h227l381 -612l385 612h229l-520 -784v-662h-194v662z" />
<glyph unicode="Z" horiz-adv-x="1236" d="M37 0v188l893 1082h-821v176h1040v-180l-889 -1092h909v-174h-1132z" />
<glyph unicode="[" horiz-adv-x="567" d="M139 -295v1890h377v-120h-213v-1649h213v-121h-377z" />
<glyph unicode="\" horiz-adv-x="681" d="M27 1438h157l473 -1438h-153z" />
<glyph unicode="]" horiz-adv-x="565" d="M47 -172h213v1649h-213v118h377v-1888h-377v121z" />
<glyph unicode="^" horiz-adv-x="1482" d="M231 588l418 858h187l415 -858h-186l-320 694l-321 -694h-193z" />
<glyph unicode="_" horiz-adv-x="1024" d="M-20 -285h1064v-153h-1064v153z" />
<glyph unicode="`" horiz-adv-x="555" d="M143 1362h183l86 -295h-99z" />
<glyph unicode="a" horiz-adv-x="1024" d="M66 250q0 127 104 209q121 90 391 108l148 11q0 53 -2 79q-2 37 -8.5 65t-26 66.5t-64.5 60t-114 21.5q-160 0 -199 -116q-10 -31 -10 -86l-170 10q0 39 16 94q31 90 115 156.5t239 66.5q74 0 152 -20q166 -43 215 -180q20 -57 20 -207v-316q0 -43 2 -63q6 -74 72 -74 q12 0 49 8v-137q-55 -18 -104 -18q-66 0 -103 24q-16 12 -32 37q-23 31 -33 82q-145 -158 -330 -158q-72 0 -133 21q-88 31 -141 97.5t-53 158.5zM246 254q0 -59 46 -101t136 -42q41 0 83 10t90 37.5t79 89t31 147.5q0 10 -1 28.5t-1 29.5v18q-293 -47 -344 -70 q-119 -47 -119 -147z" />
<glyph unicode="b" horiz-adv-x="1150" d="M133 0v1446h164v-615q25 37 45 56q109 109 287 108q201 0 325 -145q119 -141 119 -367q0 -217 -104 -354q-63 -84 -152 -123q-84 -37 -190 -37q-121 0 -221 58q-66 39 -109 98v-125h-164zM293 479q0 -131 45 -213q80 -158 262 -157q92 0 156 43q143 96 143 337 q0 127 -45 207q-88 150 -254 150q-131 0 -213 -88q-92 -97 -94 -279z" />
<glyph unicode="c" d="M80 475q2 209 90 329t203 163q78 29 176 28q172 0 273.5 -71.5t144.5 -165.5q18 -37 26 -86l-180 -17q-20 80 -41 113q-70 109 -221 109q-125 0 -208 -93.5t-83 -298.5q0 -213 111 -319q76 -70 192 -70q72 0 123 25q72 33 103.5 92t46.5 152l176 -17q-31 -188 -162 -293 q-111 -86 -291 -86q-104 0 -182 29q-115 41 -206 156.5t-91 320.5z" />
<glyph unicode="d" horiz-adv-x="1150" d="M80 485q0 207 98 338q125 172 344 172q154 0 275 -96q31 -25 57 -61v608h164v-1446h-164v123q-131 -154 -330 -154q-207 0 -325 146q-119 141 -119 370zM256 479q0 -162 74 -260q82 -104 227 -104q92 0 156 41q145 91 145 321q0 80 -12 131q-25 106 -101.5 171t-183.5 67 q-141 0 -223 -101q-82 -98 -82 -266z" />
<glyph unicode="e" d="M80 492q0 207 108 337q137 166 359 166q78 0 151 -26q170 -59 244 -230q47 -113 47 -286h-733q-2 -213 139 -312q74 -49 174 -49q98 0 162 60q29 23 53 63q12 20 39 102l166 -22q-39 -96 -63 -135q-127 -190 -373 -191q-115 0 -203 39q-111 47 -190.5 164t-79.5 320z M260 571h551q-4 59 -14 95q-25 90 -96.5 146t-165.5 56q-123 0 -193 -85t-82 -212z" />
<glyph unicode="f" horiz-adv-x="555" d="M23 829v136h159v84q0 193 25 254q51 133 229 133q53 0 119 -13l-2 -129q-31 10 -88 11q-76 0 -105 -56q-18 -33 -18 -116v-168h182v-136h-182v-829h-160v829h-159z" />
<glyph unicode="g" horiz-adv-x="1150" d="M84 477q0 217 100 350q129 168 348 168q61 0 132 -24q100 -39 184 -137v131h170v-914q0 -174 -23 -250q-57 -190 -258 -247q-90 -23 -168 -23q-80 0 -161 23q-242 66 -279 335h184q0 -80 41 -133q68 -92 226 -92q166 0 227 98q27 43 35 101q7 46 6 124v42l-2 110 q-125 -170 -316 -170q-115 0 -202 47q-98 53 -171 165t-73 296zM252 481q0 -213 121 -307q74 -57 184.5 -57t183.5 63q113 100 113 316q0 82 -20 147q-33 98 -111 153q-75 52 -171 52h-7q-68 0 -125 -29q-70 -35 -119 -119t-49 -219z" />
<glyph unicode="h" d="M135 0v1446h164l2 -578q119 127 291 127q156 0 246 -82q23 -23 41 -49q29 -43 43 -101t15 -90t1 -114v-559h-166v510q0 164 -18 215q-45 127 -195 127q-143 0 -215 -121q-45 -80 -45 -262v-469h-164z" />
<glyph unicode="i" horiz-adv-x="425" d="M141 0v965h158v-965h-158zM141 1257v189h158v-189h-158z" />
<glyph unicode="j" horiz-adv-x="425" d="M-47 -315q59 -6 74 -7q45 0 73 21q16 10 23.5 29.5t8.5 39t1 64.5v1133h160v-1178q0 -139 -51 -195q-57 -61 -183 -61q-37 0 -106 8v146zM133 1255v191h160v-191h-160z" />
<glyph unicode="k" horiz-adv-x="937" d="M133 0v1446h166v-891l385 410h201l-359 -381l441 -584h-205l-346 463l-117 -123v-340h-166z" />
<glyph unicode="l" horiz-adv-x="425" d="M137 0v1446h156v-1446h-156z" />
<glyph unicode="m" horiz-adv-x="1579" d="M131 0v965h154l2 -129q25 31 61 63q109 96 227 96q125 0 201 -90q18 -20 60 -88l32 33q145 145 287 145h4q131 0 223 -106q33 -39 48.5 -93.5t16.5 -85t1 -106.5v-604h-162v565q0 8 1 40t0 43t-3 39t-8 42t-15.5 33.5t-25.5 34t-37 24.5q-41 20 -88 21q-74 -2 -142.5 -47 t-88.5 -113q-12 -37 -13 -139v-543h-159v543q0 10 1 46t0 51t-4.5 46t-11.5 48.5t-22.5 39t-36.5 35.5q-41 31 -105 31q-33 0 -59 -9q-53 -14 -103.5 -51t-66.5 -84q-14 -37 -14 -123v-573h-154z" />
<glyph unicode="n" d="M131 0v965h164v-142q23 39 51 68q98 104 252 104q33 0 72 -7t101.5 -38.5t100.5 -87.5q29 -41 43.5 -95t15.5 -84t1 -108v-575h-162v614q0 129 -74 185q-57 43 -145 43q-106 0 -180 -72q-39 -39 -58 -88q-18 -45 -18 -133v-549h-164z" />
<glyph unicode="o" horiz-adv-x="1110" d="M82 477q0 207 111 350q131 168 370 168q106 0 193 -37q109 -45 191.5 -162.5t80.5 -314.5q0 -209 -113 -350q-135 -162 -358 -162q-211 0 -334 127q-141 141 -141 381zM260 471q0 -41 8 -98q6 -37 18.5 -74t42 -87t89 -81t139.5 -31q150 0 229 121q66 98 66 262 q2 20 1 40q0 112 -50 206q-25 45 -60 74q-72 61 -176 61q-88 0 -150.5 -38t-92 -83t-45 -111.5t-17.5 -96t-2 -64.5z" />
<glyph unicode="p" horiz-adv-x="1150" d="M133 -459v1424h160l2 -138q45 51 82 80q113 88 260 88q104 0 203 -55q94 -51 162.5 -163.5t68.5 -297.5q0 -213 -104 -348q-127 -162 -349 -162q-168 0 -278 94q-20 16 -47 50v-572h-160zM293 465q0 -152 76 -252q41 -51 100 -76q53 -25 127 -24q158 0 235 110 q72 100 72 262q0 94 -24 162q-16 43 -42 82t-93 78q-60 35 -138 35h-16q-86 -4 -152 -47q-145 -97 -145 -330z" />
<glyph unicode="q" horiz-adv-x="1150" d="M82 469q0 240 115 377q37 47 96 84q104 66 229 65q164 0 277 -108q31 -31 53 -66v144h166v-1426h-166v576q-29 -37 -55 -56q-111 -90 -277 -90q-172 0 -284 99q-154 133 -154 401zM260 479q0 -219 111 -311q78 -66 190 -66q84 0 152 37q152 78 151 310q0 178 -78 282 q-39 53 -98 84q-49 25 -127 27q-106 0 -176 -49q-125 -91 -125 -314z" />
<glyph unicode="r" horiz-adv-x="641" d="M133 0v965h164v-177q35 68 90 111q98 78 240 78v-176q-37 5 -67.5 5t-53.5 -5q-72 -12 -124 -59.5t-71 -116.5q-14 -49 -14 -179v-446h-164z" />
<glyph unicode="s" horiz-adv-x="980" d="M63 311l187 27q0 -113 53 -170q68 -74 215 -74q119 0 180 56q45 41 45 106q0 41 -18 72q-33 53 -182 82l-94 18q-154 31 -228 76q-117 70 -117 205q0 88 52 157q98 129 323 129q135 0 225.5 -51t135.5 -119q37 -57 51 -147l-176 -21q-2 66 -15 91q-23 47 -86 84.5 t-157 37.5q-92 0 -141.5 -44t-49.5 -97q0 -25 15 -51q20 -35 71 -56.5t148 -43.5l94 -23q8 -2 88 -25q233 -72 233 -256q0 -80 -43 -145q-104 -160 -364 -160q-176 0 -287 70q-39 25 -69 61q-66 80 -89 211z" />
<glyph unicode="t" horiz-adv-x="598" d="M33 829v136h155v305h168v-305h174v-136h-174v-553q0 -113 13 -135q16 -29 59 -28q41 0 102 22v-135q-98 -16 -155 -16q-125 0 -164 59q-12 18 -17.5 44t-5.5 42v74v626h-155z" />
<glyph unicode="u" d="M133 323v39v37v566h162v-549q0 -147 22 -195q47 -92 177 -92q154 0 229 111q47 70 47 241v484h160v-965h-160l-2 147q-16 -25 -41 -49q-123 -123 -287 -123q-180 0 -258 127q-10 16 -18 36t-13.5 35t-8.5 39t-5 35t-3 40t-1 36z" />
<glyph unicode="v" horiz-adv-x="894" d="M25 965h170l256 -740l254 740h167l-348 -965h-147z" />
<glyph unicode="w" horiz-adv-x="1492" d="M23 965h176l241 -717l238 717h143l228 -717l251 717h173l-355 -965h-143l-232 719l-235 -719h-150z" />
<glyph unicode="x" horiz-adv-x="811" d="M18 0l299 489l-284 476h188l193 -332l194 332h185l-291 -476l291 -489h-185l-205 344l-200 -344h-185z" />
<glyph unicode="y" horiz-adv-x="894" d="M18 -309q59 -16 105 -17q59 0 90 21q53 35 102 180l41 119l-327 971h174l241 -766l256 766h170l-405 -1141q-43 -117 -62 -152q-41 -82 -94 -115.5t-145 -33.5q-72 0 -146 20v148z" />
<glyph unicode="z" horiz-adv-x="854" d="M27 0v135l555 688h-502v142h704v-131l-561 -699h574v-135h-770z" />
<glyph unicode="{" horiz-adv-x="575" d="M35 590v123q76 4 115 28q35 20 47 59.5t12 129.5v330v12q0 117 12 170q37 154 250 160l78 2v-119h-35q-74 0 -106 -33q-18 -23 -25 -45q-8 -31 -8 -145v-336q0 -127 -34 -182.5t-134 -94.5q61 -18 96 -49q41 -37 56.5 -85t15.5 -140v-338q0 -113 8 -143q20 -78 133 -78 h33v-119h-78q-143 0 -203 72q-35 41 -47 90q-12 53 -12 170v12v330q0 113 -21 149q-32 58 -153 70z" />
<glyph unicode="|" horiz-adv-x="483" d="M158 -293v1888h164v-1888h-164z" />
<glyph unicode="}" horiz-adv-x="575" d="M25 -184h34q76 0 107 32q18 18 24 46q10 37 11 143l-2 336q-2 127 32.5 182t135.5 96q-57 14 -97 49q-41 35 -56 84.5t-15 141.5l2 336q0 106 -11 145q-20 76 -133 76h-32v119h77q145 0 203 -72q35 -43 47 -88q14 -66 15 -172v-10l-2 -332q0 -106 20 -148q33 -59 154 -69 v-123q-76 -8 -115 -31q-35 -20 -47 -58t-12 -128l2 -332v-10q0 -106 -15 -172q-39 -160 -248 -160h-79v119z" />
<glyph unicode="~" horiz-adv-x="1482" d="M152 588q53 76 108 125q92 82 215 82q84 0 273 -84l92 -41q113 -51 161 -52q72 0 136 48q41 29 104 102l92 -123q-80 -98 -147 -143q-96 -61 -191 -62q-57 0 -135 31q-45 16 -110 47l-72 35q-133 63 -213 63q-37 0 -68 -12q-33 -12 -58.5 -36.5t-82.5 -90.5l-12 -14z" />
<glyph unicode="&#xa1;" horiz-adv-x="555" d="M158 0v590l49 555h63l49 -578v-567h-161zM158 1262v184h161v-184h-161z" />
<glyph unicode="&#xa2;" horiz-adv-x="1024" d="M57 485q0 133 59.5 259t196.5 194q55 29 162 47v197h121v-195q51 -8 91 -20.5t98.5 -44t106.5 -97t79 -161.5l-185 -17q-16 160 -190 207v-745q203 35 215 260l180 -17q-55 -262 -254 -344q-53 -23 -141 -33v-211h-123v211q-164 33 -248 105q-88 78 -128 189.5t-40 215.5 zM231 485q0 -248 152 -340q59 -35 90 -34v747q-57 -18 -67 -24q-175 -91 -175 -349z" />
<glyph unicode="&#xa3;" horiz-adv-x="1366" d="M74 575v134l268 2q-125 203 -125 342q0 141 94 250q68 78 170.5 121.5t160.5 51t112 7.5q178 0 307 -86q74 -49 134 -140.5t65 -234.5l-216 -21q6 47 -2 95q-16 88 -85.5 163.5t-217.5 75.5q-66 0 -118 -18q-182 -59 -183 -246q0 -53 16.5 -106.5t32 -82t56.5 -90 t53 -83.5h428v-134h-354q4 -10 13 -38.5t12 -39t8.5 -31t7.5 -39.5t2 -42q0 -68 -23 -156q14 -8 27 -16q27 -16 97.5 -42t129.5 -26q94 0 147.5 62.5t55.5 157.5l190 -13q-8 -109 -60 -206t-142 -142q-57 -29 -142 -29q-100 0 -213 39q-33 12 -90 39t-78 35 q-8 -6 -22.5 -17.5t-26.5 -20.5t-24 -17q-96 -63 -215 -64q-37 0 -74 11q-86 23 -121 74.5t-35 103t27 90.5q57 88 196 88q96 0 205 -37q6 29 4 45q-4 57 -34 133q-23 49 -56 98h-362zM256 143q0 -18 17.5 -33.5t48.5 -15.5q72 0 143 64q-25 10 -74 22q-25 12 -69 13 q-41 0 -58 -25q-8 -9 -8 -25z" />
<glyph unicode="&#xa4;" horiz-adv-x="1357" d="M92 223l156 152q-106 150 -107 321q0 166 107 318l-152 151l113 113l151 -152q147 106 320 107q184 0 317 -107l154 154l115 -115l-154 -153q104 -156 105 -318q0 -168 -107 -319l154 -156l-115 -113l-154 156q-92 -61 -158.5 -83.5t-158.5 -22.5q-94 0 -163 23.5 t-155 82.5l-155 -151zM317 696q0 -158 105.5 -262t263.5 -104q150 0 252 104.5t102 257.5q0 158 -102 263.5t-258 105.5q-154 0 -258.5 -104.5t-104.5 -260.5z" />
<glyph unicode="&#xa5;" horiz-adv-x="1280" d="M29 1386h229l379 -587l387 587h227l-350 -505h229v-148h-325l-78 -106h403v-148h-399v-479h-192v479h-398v148h398l-66 104h-332v146h232z" />
<glyph unicode="&#xa6;" horiz-adv-x="516" d="M174 -281v822h168v-822h-168zM174 784v824h168v-824h-168z" />
<glyph unicode="&#xa7;" horiz-adv-x="1280" d="M76 760q0 94 54 179t140 134q-86 86 -86 182q0 100 66.5 179t167.5 114q86 31 178 31h12q168 0 387 -98q12 -6 51 -24.5t60 -26.5l-82 -146q-84 49 -135 73.5t-130 48.5t-155 24q-49 0 -98 -12.5t-92 -46.5t-43 -85q0 -33 11 -56.5t43 -44t45 -26.5t58 -22q10 -4 15 -7 q276 -104 352 -141q145 -70 228 -157t83 -224q0 -98 -52 -185t-140 -136q102 -92 102 -205q0 -66 -37 -133q-53 -100 -156.5 -149.5t-226.5 -49.5q-207 0 -534 166l82 152q98 -70 221 -113t237 -43q82 0 146.5 35t64.5 110v6q0 31 -9 54.5t-33.5 41t-41 27t-55.5 24.5 t-49 19q-6 2 -105.5 45t-141.5 63.5t-120.5 61.5t-129 79t-81.5 77q-71 88 -71 205zM262 780q0 -86 78 -149q33 -29 107.5 -69t135 -67.5t156 -69.5t111.5 -50q72 27 125 85t53 130q0 53 -35 104q-23 33 -60.5 63.5t-92 58.5t-91 44.5t-102 41t-84.5 32.5l-131 53 q-66 -23 -118 -83.5t-52 -123.5z" />
<glyph unicode="&#xa8;" horiz-adv-x="555" d="M-14 1108v211h178v-211h-178zM387 1108v211h182v-211h-182z" />
<glyph unicode="&#xa9;" horiz-adv-x="1720" d="M131 723q0 305 213 517t518 212q299 0 513 -211t214 -504q0 -317 -209 -530t-522 -213q-303 0 -515 213t-212 516zM205 720.5q0 -274.5 190.5 -466t464.5 -191.5q266 0 461 191.5t195 454.5q0 287 -188.5 480t-467.5 193q-272 0 -463.5 -193.5t-191.5 -468zM438 707 q0 217 125 355t324 138q145 0 235 -67.5t140 -214.5l-138 -39q-43 106 -95 147t-144 41q-135 0 -215 -95t-80 -257q0 -154 75.5 -244t202.5 -90q102 0 165 51t97 162l140 -29q-92 -322 -404 -321q-193 0 -310.5 128t-117.5 335z" />
<glyph unicode="&#xaa;" horiz-adv-x="641" d="M61 1020q0 57 26 96t80 59.5t113.5 29.5t151.5 16v22q0 70 -22.5 106.5t-92.5 36.5q-117 0 -116 -108v-12l-113 8l2 14q2 14 7 33.5t12 34.5q51 115 206 114q164 0 207 -120q12 -29 13 -82v-224q0 -82 45 -81q16 0 30 10v-94q-25 -10 -55 -13q-82 -2 -117 76 q-80 -86 -196 -84q-74 0 -127.5 42t-53.5 120zM180 1030q-2 -43 29 -63.5t72 -20.5q59 2 105 39t46 127v35l-43 -6q-156 -23 -186 -58q-23 -24 -23 -53z" />
<glyph unicode="&#xab;" horiz-adv-x="811" d="M86 512v174l276 240v-187l-159 -139l159 -137v-182zM410 520v170l274 238v-183l-164 -145l164 -135v-176z" />
<glyph unicode="&#xac;" horiz-adv-x="1482" d="M143 535v163h1160v-686h-183v523h-977z" />
<glyph unicode="&#xad;" horiz-adv-x="757" d="M92 537v155h574v-155h-574z" />
<glyph unicode="&#xae;" horiz-adv-x="1720" d="M131 723q0 305 213 517t518 212q299 0 513 -211t214 -504q0 -317 -209 -530t-522 -213q-303 0 -515 213t-212 516zM207 720.5q0 -274.5 190.5 -466t462.5 -191.5q266 0 461 191.5t195 454.5q0 287 -188.5 480t-467.5 193q-272 0 -462.5 -193.5t-190.5 -468zM575 262v922 h267q170 0 247.5 -63.5t77.5 -200.5q0 -205 -196 -258l209 -400h-158l-195 387h-110v-387h-142zM719 774h117q98 0 143 34t45 109.5t-47 108.5t-156 33h-102v-285z" />
<glyph unicode="&#xaf;" horiz-adv-x="555" d="M-14 1108v139h583v-139h-583z" />
<glyph unicode="&#xb0;" horiz-adv-x="724" d="M33 1216.5q0 137.5 96 233.5t233 96q139 0 234.5 -95t95.5 -234q0 -137 -96 -234.5t-233.5 -97.5t-233.5 97t-96 234.5zM201 1221q0 -66 48 -114t113 -48q68 0 115 47t47 114.5t-47 114.5t-114.5 47t-114.5 -46.5t-47 -114.5z" />
<glyph unicode="&#xb1;" horiz-adv-x="1482" d="M190 162h1100v-162h-1097zM193 727v160h458v444h180v-444h461v-160h-461v-448h-180v448h-458z" />
<glyph unicode="&#xb2;" horiz-adv-x="768" d="M90 477v125l21 12q104 63 215.5 156.5t167.5 179.5q59 90 59 168q0 74 -47 118t-119 46q-84 2 -126 -48t-42 -130q0 -33 17 -107h-134q-12 53 -12 109q0 131 79 210t212 83q131 4 219 -73t88 -210q0 -252 -418 -524h428v-115h-608z" />
<glyph unicode="&#xb3;" horiz-adv-x="768" d="M43 770h137q0 -197 211 -192q20 0 42 3t59.5 16t60 48t22.5 88q0 145 -174 146h-88v120h68h22q10 0 41 7.5t51.5 19.5t39 41t18.5 68q0 72 -52 109.5t-120 37.5q-147 0 -172 -154q-4 -29 -4 -59l-133 2q0 86 20 141q70 186 287 187q125 0 218 -68.5t93 -197.5 q0 -141 -147 -187q59 -14 84 -31q92 -57 92 -184q0 -109 -82 -191.5t-252 -80.5q-242 6 -315 176q-27 63 -27 135z" />
<glyph unicode="&#xb4;" horiz-adv-x="555" d="M147 1069l84 295h177l-177 -295h-84z" />
<glyph unicode="&#xb5;" horiz-adv-x="1155" d="M176 -442v1405h164v-484q0 -209 45 -274q57 -90 176 -90q139 0 201 139q35 78 35 266l2 443h162v-711q0 -82 14 -110.5t53 -28.5q25 0 57 14v-131q-57 -14 -88 -14q-84 0 -126 37.5t-54 125.5q-47 -90 -105.5 -129t-152.5 -39q-139 0 -223 121l8 -540h-168z" />
<glyph unicode="&#xb6;" horiz-adv-x="1314" d="M156 1042q0 180 112 289q63 61 142 88t204 27h461v-111h-67v-1677h-117v1677h-299v-1677h-117v1004q-57 8 -94 22q-104 39 -164.5 135t-60.5 223z" />
<glyph unicode="&#xb7;" horiz-adv-x="409" d="M100 467v254h209v-254h-209z" />
<glyph unicode="&#xb8;" horiz-adv-x="555" d="M139 -197l150 230l59 -15l-59 -106q10 -6 31.5 -17.5t31.5 -17.5q63 -47 64 -117q0 -43 -27 -84q-57 -84 -233 -92l2 47q18 -6 47 2q57 14 57 72q0 27 -12 39q-10 16 -27.5 26.5t-45.5 19.5t-38 13z" />
<glyph unicode="&#xb9;" horiz-adv-x="768" d="M164 1147v92q92 6 143 38t68 124h102v-924h-137v670h-176z" />
<glyph unicode="&#xba;" horiz-adv-x="681" d="M53 1149q0 57 15 106q18 70 58 117t87 64.5t75.5 23.5t55.5 6q133 0 209 -91t76 -218q0 -131 -77 -217t-208 -86q-131 -2 -209 82t-82 213zM170 1157q0 -37 10 -82q35 -127 158 -131q76 -2 125 50.5t49 166.5q0 86 -42 148.5t-130 64.5q-74 0 -122 -53t-48 -164z" />
<glyph unicode="&#xbb;" horiz-adv-x="811" d="M127 274v185l164 143l-164 137v174l274 -231v-170zM446 279v184l162 141l-162 135v183l277 -232v-172z" />
<glyph unicode="&#xbc;" horiz-adv-x="1792" d="M164 1147v92q92 6 143 38t68 124h102v-924h-137v670h-176zM508 -6l651 1403l111 -54l-649 -1402zM1069 223v119l438 580h109v-584h131v-115h-133v-223h-129v223h-416zM1206 338h281l4 391z" />
<glyph unicode="&#xbd;" horiz-adv-x="1792" d="M164 1147v92q92 6 143 38t68 124h102v-924h-137v670h-176zM459 -6l651 1403l111 -54l-650 -1402zM1114 0v125l23 12q125 68 225 161t147 161q68 98 68 184q0 23 -7 46.5t-23.5 51t-51.5 46t-84 20.5q-84 2 -126 -48t-42 -132q0 -33 17 -105h-134q-12 53 -12 107 q0 133 79 211t212 82q129 4 217 -73t88 -210q0 -254 -416 -522h428v-117h-608z" />
<glyph unicode="&#xbe;" horiz-adv-x="1792" d="M43 770h137q0 -197 211 -192q20 0 42 3t59.5 16t60 48t22.5 88q0 145 -174 146h-88v120h68h22q10 0 41 7.5t51.5 19.5t39 41t18.5 68q0 72 -52 109.5t-120 37.5q-147 0 -172 -154q-4 -29 -4 -59l-133 2q0 86 20 141q70 186 287 187q125 0 218 -68.5t93 -197.5 q0 -141 -147 -187q59 -14 84 -31q92 -57 92 -184q0 -109 -82 -191.5t-252 -80.5q-242 6 -315 176q-27 63 -27 135zM596 -6l651 1403l111 -54l-649 -1402zM1069 223v119l438 580h109v-584h131v-115h-133v-223h-129v223h-416zM1206 338h281l4 391z" />
<glyph unicode="&#xbf;" horiz-adv-x="1150" d="M76 430q0 111 55 207t154 145q76 39 180 45v312h160v-484h-66q-115 0 -192 -39q-47 -23 -74 -61q-49 -59 -49 -145q0 -72 32 -129q31 -53 100.5 -96.5t176.5 -43.5q88 0 152 35q125 72 124 264q0 6 -1 18.5t-1 18.5l181 -2q0 -211 -109 -338q-133 -150 -350 -149 q-195 0 -334 124.5t-139 317.5zM455 1247v199h182v-199h-182z" />
<glyph unicode="&#xc0;" horiz-adv-x="1323" d="M20 0l551 1446h201l526 -1446h-202l-158 442h-551l-162 -442h-205zM446 1833h205l97 -254h-123zM449 604h432l-211 604z" />
<glyph unicode="&#xc1;" horiz-adv-x="1323" d="M20 0l551 1446h201l526 -1446h-202l-158 442h-551l-162 -442h-205zM449 604h432l-211 604zM575 1579l99 254h203l-179 -254h-123z" />
<glyph unicode="&#xc2;" horiz-adv-x="1323" d="M20 0l551 1446h201l526 -1446h-202l-158 442h-551l-162 -442h-205zM385 1579l207 254h133l219 -254h-158l-127 152l-120 -152h-154zM449 604h432l-211 604z" />
<glyph unicode="&#xc3;" horiz-adv-x="1323" d="M20 0l551 1446h201l526 -1446h-202l-158 442h-551l-162 -442h-205zM362 1610q20 127 84 174q39 29 97 28q31 0 61.5 -9t67.5 -25.5t59 -22.5q25 -12 66 -12q23 0 32 8q18 12 35 55h97q-6 -41 -23 -84q-41 -125 -147 -123q-45 0 -170 50q-59 25 -93 24q-16 0 -22 -2 q-35 -12 -43 -61h-101zM449 604h432l-211 604z" />
<glyph unicode="&#xc4;" horiz-adv-x="1323" d="M20 0l551 1446h201l526 -1446h-202l-158 442h-551l-162 -442h-205zM377 1599v209h178v-209h-178zM449 604h432l-211 604zM778 1599v209h178v-209h-178z" />
<glyph unicode="&#xc5;" horiz-adv-x="1323" d="M20 0l551 1446h201l526 -1446h-202l-158 442h-551l-162 -442h-205zM449 604h432l-211 604zM475 1739q0 80 57.5 136t139.5 56q80 0 137 -56t57 -138q0 -80 -58 -137.5t-138 -57.5q-82 0 -138.5 57.5t-56.5 139.5zM567 1737q0 -43 31 -73t74 -30q41 0 71.5 31t30.5 74 t-30.5 72.5t-73.5 29.5t-73 -30.5t-30 -73.5z" />
<glyph unicode="&#xc6;" horiz-adv-x="2134" d="M-4 0l989 1446h1067v-170h-809v-473h653v-162h-653v-473h834v-168h-1024v475h-516l-316 -475h-225zM649 641h404v619z" />
<glyph unicode="&#xc7;" horiz-adv-x="1564" d="M100 727q2 340 198 548t536 208q276 0 438 -128t219 -315l-195 -41q-37 104 -79 156q-139 174 -386 174q-94 0 -180 -30.5t-164.5 -95t-126 -187.5t-47.5 -289q0 -113 29 -216t87 -192.5t161.5 -142.5t238.5 -53q190 0 319.5 112.5t162.5 313.5l209 -25 q-33 -164 -150 -308t-285 -206q-76 -29 -223 -41l-33 -57q4 -4 30 -17.5t44.5 -26.5t35.5 -42t17 -66q0 -78 -69.5 -127t-190.5 -49v47q4 -2 15 -2q45 0 69.5 24.5t22.5 53.5q-2 37 -30 56.5t-93 39.5l106 162q-211 23 -292 62q-166 74 -280 253t-114 447z" />
<glyph unicode="&#xc8;" horiz-adv-x="1236" d="M162 0v1446h995v-170h-811v-447h705v-167h-705v-494h836v-168h-1020zM426 1833h203l96 -254h-121z" />
<glyph unicode="&#xc9;" horiz-adv-x="1236" d="M162 0v1446h995v-170h-811v-447h705v-167h-705v-494h836v-168h-1020zM553 1579l98 254h203l-178 -254h-123z" />
<glyph unicode="&#xca;" horiz-adv-x="1236" d="M162 0v1446h995v-170h-811v-447h705v-167h-705v-494h836v-168h-1020zM375 1579l207 254h133l219 -254h-158l-127 152l-121 -152h-153z" />
<glyph unicode="&#xcb;" horiz-adv-x="1236" d="M162 0v1446h995v-170h-811v-447h705v-167h-705v-494h836v-168h-1020zM360 1599v209h179v-209h-179zM762 1599v209h180v-209h-180z" />
<glyph unicode="&#xcc;" horiz-adv-x="468" d="M20 1833h203l96 -254h-120zM137 0v1446h195v-1446h-195z" />
<glyph unicode="&#xcd;" horiz-adv-x="468" d="M137 0v1446h195v-1446h-195zM150 1579l98 254h201l-177 -254h-122z" />
<glyph unicode="&#xce;" horiz-adv-x="468" d="M-41 1579l207 254h133l219 -254h-158l-127 152l-120 -152h-154zM137 0v1446h195v-1446h-195z" />
<glyph unicode="&#xcf;" horiz-adv-x="468" d="M-55 1599v209h178v-209h-178zM137 0v1446h195v-1446h-195zM346 1599v209h178v-209h-178z" />
<glyph unicode="&#xd0;" horiz-adv-x="1449" d="M27 698v123h133v625h508q180 0 272 -31q186 -63 298 -239.5t110 -464.5v-54q0 -18 -8.5 -88.5t-24 -122t-50 -126t-82.5 -128t-127 -102.5t-177 -72q-76 -16 -220 -16q-25 0 -66.5 -1t-66.5 -1h-366v698h-133zM358 168h256q184 0 271 35q125 49 194.5 179t71.5 333 q0 455 -313 540q-80 20 -222 21h-258v-455h344v-123h-344v-530z" />
<glyph unicode="&#xd1;" horiz-adv-x="1449" d="M160 0v1446h182l782 -1159l-8 1159h174v-1446h-174l-792 1176l18 -1176h-182zM428 1610q18 127 82 174q39 29 96 28q31 0 61.5 -9t68.5 -25.5t59 -22.5q37 -12 67 -12q20 0 31 8q20 12 35 55h96q-6 -49 -20 -84q-51 -125 -150 -123q-43 0 -170 50q-59 25 -92 24 q-12 0 -21 -2q-37 -16 -45 -61h-98z" />
<glyph unicode="&#xd2;" horiz-adv-x="1662" d="M104 725q0 328 181 530q100 111 245.5 169.5t303.5 58.5q154 0 286 -51q217 -84 329 -270.5t112 -426.5q0 -299 -152 -504q-201 -268 -582 -268q-301 0 -497 184q-226 211 -226 578zM313 723q0 -225 97 -383q43 -66 92 -109q63 -55 139 -84q88 -33 197 -32q123 0 219 43 q123 57 210 198.5t85 378.5q0 248 -113 402q-139 190 -405 190q-274 -2 -410 -199q-111 -159 -111 -405zM618 1833h203l97 -254h-121z" />
<glyph unicode="&#xd3;" horiz-adv-x="1662" d="M104 725q0 328 181 530q100 111 245.5 169.5t303.5 58.5q154 0 286 -51q217 -84 329 -270.5t112 -426.5q0 -299 -152 -504q-201 -268 -582 -268q-301 0 -497 184q-226 211 -226 578zM313 723q0 -225 97 -383q43 -66 92 -109q63 -55 139 -84q88 -33 197 -32q123 0 219 43 q123 57 210 198.5t85 378.5q0 248 -113 402q-139 190 -405 190q-274 -2 -410 -199q-111 -159 -111 -405zM745 1579l99 254h203l-179 -254h-123z" />
<glyph unicode="&#xd4;" horiz-adv-x="1662" d="M104 725q0 328 181 530q100 111 245.5 169.5t303.5 58.5q154 0 286 -51q217 -84 329 -270.5t112 -426.5q0 -299 -152 -504q-201 -268 -582 -268q-301 0 -497 184q-226 211 -226 578zM313 723q0 -225 97 -383q43 -66 92 -109q63 -55 139 -84q88 -33 197 -32q123 0 219 43 q123 57 210 198.5t85 378.5q0 248 -113 402q-139 190 -405 190q-274 -2 -410 -199q-111 -159 -111 -405zM557 1579l205 254h133l221 -254h-158l-127 152l-122 -152h-152z" />
<glyph unicode="&#xd5;" horiz-adv-x="1662" d="M104 725q0 328 181 530q100 111 245.5 169.5t303.5 58.5q154 0 286 -51q217 -84 329 -270.5t112 -426.5q0 -299 -152 -504q-201 -268 -582 -268q-301 0 -497 184q-226 211 -226 578zM313 723q0 -225 97 -383q43 -66 92 -109q63 -55 139 -84q88 -33 197 -32q123 0 219 43 q123 57 210 198.5t85 378.5q0 248 -113 402q-139 190 -405 190q-274 -2 -410 -199q-111 -159 -111 -405zM535 1610q18 127 81 174q39 29 97 28q31 0 61.5 -9t68.5 -25.5t58 -22.5q37 -12 68 -12q20 0 30 8q20 12 35 55h96q-6 -49 -20 -84q-51 -125 -149 -123q-45 0 -168 50 q-63 25 -95 24q-12 0 -20 -2q-37 -16 -45 -61h-98z" />
<glyph unicode="&#xd6;" horiz-adv-x="1662" d="M104 725q0 328 181 530q100 111 245.5 169.5t303.5 58.5q154 0 286 -51q217 -84 329 -270.5t112 -426.5q0 -299 -152 -504q-201 -268 -582 -268q-301 0 -497 184q-226 211 -226 578zM313 723q0 -225 97 -383q43 -66 92 -109q63 -55 139 -84q88 -33 197 -32q123 0 219 43 q123 57 210 198.5t85 378.5q0 248 -113 402q-139 190 -405 190q-274 -2 -410 -199q-111 -159 -111 -405zM551 1599v209h178v-209h-178zM952 1599v209h178v-209h-178z" />
<glyph unicode="&#xd7;" horiz-adv-x="1482" d="M270 940l127 127l334 -328l322 328l114 -113l-321 -327l334 -328l-125 -127l-334 326l-324 -328l-114 113l323 327z" />
<glyph unicode="&#xd8;" horiz-adv-x="1662" d="M96 121l142 135q-135 233 -136 467q0 68 10.5 140.5t60.5 196.5t138 216q193 207 516 207q80 0 168 -17q164 -35 328 -168l141 134l99 -105l-144 -139q143 -209 144 -461q0 -160 -62 -315q-88 -217 -267 -333t-417 -116q-147 0 -257.5 43t-229.5 139l-133 -127zM315 717 q0 -168 66 -322l807 774q-143 160 -367 160q-233 0 -370 -168q-136 -163 -136 -444zM459 268q156 -154 372 -153q203 0 343 129q176 166 176 454q0 190 -78 351z" />
<glyph unicode="&#xd9;" horiz-adv-x="1409" d="M156 551v895h192v-868q0 -127 6 -168q16 -125 95 -199q49 -47 120 -70q51 -14 125 -14q127 0 215 57q68 43 101.5 115t40 129t6.5 154v864h194v-924q0 -111 -12 -168q-35 -190 -211 -303q-141 -88 -336 -88q-135 0 -235 39q-98 37 -173 115t-108 178q-20 70 -20 256z M489 1833h203l99 -254h-123z" />
<glyph unicode="&#xda;" horiz-adv-x="1409" d="M156 551v895h192v-868q0 -127 6 -168q16 -125 95 -199q49 -47 120 -70q51 -14 125 -14q127 0 215 57q68 43 101.5 115t40 129t6.5 154v864h194v-924q0 -111 -12 -168q-35 -190 -211 -303q-141 -88 -336 -88q-135 0 -235 39q-98 37 -173 115t-108 178q-20 70 -20 256z M618 1579l99 254h203l-179 -254h-123z" />
<glyph unicode="&#xdb;" horiz-adv-x="1409" d="M156 551v895h192v-868q0 -127 6 -168q16 -125 95 -199q49 -47 120 -70q51 -14 125 -14q127 0 215 57q68 43 101.5 115t40 129t6.5 154v864h194v-924q0 -111 -12 -168q-35 -190 -211 -303q-141 -88 -336 -88q-135 0 -235 39q-98 37 -173 115t-108 178q-20 70 -20 256z M428 1579l207 254h133l219 -254h-158l-127 152l-120 -152h-154z" />
<glyph unicode="&#xdc;" horiz-adv-x="1409" d="M156 551v895h192v-868q0 -127 6 -168q16 -125 95 -199q49 -47 120 -70q51 -14 125 -14q127 0 215 57q68 43 101.5 115t40 129t6.5 154v864h194v-924q0 -111 -12 -168q-35 -190 -211 -303q-141 -88 -336 -88q-135 0 -235 39q-98 37 -173 115t-108 178q-20 70 -20 256z M412 1599v209h178v-209h-178zM815 1599v209h178v-209h-178z" />
<glyph unicode="&#xdd;" horiz-adv-x="1280" d="M29 1446h227l381 -612l385 612h229l-520 -784v-662h-194v662zM553 1579l98 254h203l-178 -254h-123z" />
<glyph unicode="&#xde;" horiz-adv-x="1280" d="M156 0v1446h186v-264h471q119 0 191 -23q131 -43 191 -150.5t62 -232.5q2 -131 -64.5 -247.5t-205.5 -159.5q-66 -20 -203 -21h-442v-348h-186zM342 518h403h31h33q8 0 31.5 1t35 4t32 8.5t33.5 13.5t30.5 18t31 26.5t25.5 35.5q39 59 39 151q4 238 -279 238h-446v-496z " />
<glyph unicode="&#xdf;" horiz-adv-x="1110" d="M131 0v1018q0 78 2 117t17.5 100t48.5 106q100 141 331 142q162 0 263 -72q129 -92 129 -258q0 -137 -88 -221q-37 -37 -97 -62q70 -10 124 -40.5t85 -73.5t46.5 -76t23.5 -64q14 -59 14 -141q0 -322 -199 -436q-106 -61 -245 -62q-86 0 -193 31v172q121 -43 203 -43 q137 0 207 94q61 84 61 228q0 131 -69 213q-55 63 -139.5 87.5t-245.5 24.5l2 162q205 -20 290 66q55 55 56 135q0 90 -65.5 138t-157.5 46q-94 0 -150 -39q-47 -31 -68.5 -87t-22.5 -85.5t-1 -111.5v-1008h-162z" />
<glyph unicode="&#xe0;" horiz-adv-x="1024" d="M66 250q0 127 104 209q121 90 391 108l148 11q0 53 -2 79q-2 37 -8.5 65t-26 66.5t-64.5 60t-114 21.5q-160 0 -199 -116q-10 -31 -10 -86l-170 10q0 39 16 94q31 90 115 156.5t239 66.5q74 0 152 -20q166 -43 215 -180q20 -57 20 -207v-316q0 -43 2 -63q6 -74 72 -74 q12 0 49 8v-137q-55 -18 -104 -18q-66 0 -103 24q-16 12 -32 37q-23 31 -33 82q-145 -158 -330 -158q-72 0 -133 21q-88 31 -141 97.5t-53 158.5zM246 254q0 -59 46 -101t136 -42q41 0 83 10t90 37.5t79 89t31 147.5q0 10 -1 28.5t-1 29.5v18q-293 -47 -344 -70 q-119 -47 -119 -147zM305 1362h182l84 -295h-96z" />
<glyph unicode="&#xe1;" horiz-adv-x="1024" d="M66 250q0 127 104 209q121 90 391 108l148 11q0 53 -2 79q-2 37 -8.5 65t-26 66.5t-64.5 60t-114 21.5q-160 0 -199 -116q-10 -31 -10 -86l-170 10q0 39 16 94q31 90 115 156.5t239 66.5q74 0 152 -20q166 -43 215 -180q20 -57 20 -207v-316q0 -43 2 -63q6 -74 72 -74 q12 0 49 8v-137q-55 -18 -104 -18q-66 0 -103 24q-16 12 -32 37q-23 31 -33 82q-145 -158 -330 -158q-72 0 -133 21q-88 31 -141 97.5t-53 158.5zM246 254q0 -59 46 -101t136 -42q41 0 83 10t90 37.5t79 89t31 147.5q0 10 -1 28.5t-1 29.5v18q-293 -47 -344 -70 q-119 -47 -119 -147zM465 1069l84 295h176l-176 -295h-84z" />
<glyph unicode="&#xe2;" horiz-adv-x="1024" d="M66 250q0 127 104 209q121 90 391 108l148 11q0 53 -2 79q-2 37 -8.5 65t-26 66.5t-64.5 60t-114 21.5q-160 0 -199 -116q-10 -31 -10 -86l-170 10q0 39 16 94q31 90 115 156.5t239 66.5q74 0 152 -20q166 -43 215 -180q20 -57 20 -207v-316q0 -43 2 -63q6 -74 72 -74 q12 0 49 8v-137q-55 -18 -104 -18q-66 0 -103 24q-16 12 -32 37q-23 31 -33 82q-145 -158 -330 -158q-72 0 -133 21q-88 31 -141 97.5t-53 158.5zM246 254q0 -59 46 -101t136 -42q41 0 83 10t90 37.5t79 89t31 147.5q0 10 -1 28.5t-1 29.5v18q-293 -47 -344 -70 q-119 -47 -119 -147zM248 1071l192 309h138l213 -309h-154l-125 195l-121 -195h-143z" />
<glyph unicode="&#xe3;" horiz-adv-x="1024" d="M66 250q0 127 104 209q121 90 391 108l148 11q0 53 -2 79q-2 37 -8.5 65t-26 66.5t-64.5 60t-114 21.5q-160 0 -199 -116q-10 -31 -10 -86l-170 10q0 39 16 94q31 90 115 156.5t239 66.5q74 0 152 -20q166 -43 215 -180q20 -57 20 -207v-316q0 -43 2 -63q6 -74 72 -74 q12 0 49 8v-137q-55 -18 -104 -18q-66 0 -103 24q-16 12 -32 37q-23 31 -33 82q-145 -158 -330 -158q-72 0 -133 21q-88 31 -141 97.5t-53 158.5zM213 1104q2 18 8 41.5t23.5 65.5t55.5 69t91 27q45 0 180 -52l13 -6q12 -4 30.5 -8t32.5 -4q57 0 66 63h98v-6q-2 -8 -4 -18 t-6 -23.5t-9.5 -28t-12.5 -30.5t-16 -29.5t-21.5 -27t-27 -22.5t-33.5 -14t-40 -5q-43 0 -178 51q-55 20 -82 20q-57 0 -68 -63h-100zM246 254q0 -59 46 -101t136 -42q41 0 83 10t90 37.5t79 89t31 147.5q0 10 -1 28.5t-1 29.5v18q-293 -47 -344 -70q-119 -47 -119 -147z " />
<glyph unicode="&#xe4;" horiz-adv-x="1024" d="M66 250q0 127 104 209q121 90 391 108l148 11q0 53 -2 79q-2 37 -8.5 65t-26 66.5t-64.5 60t-114 21.5q-160 0 -199 -116q-10 -31 -10 -86l-170 10q0 39 16 94q31 90 115 156.5t239 66.5q74 0 152 -20q166 -43 215 -180q20 -57 20 -207v-316q0 -43 2 -63q6 -74 72 -74 q12 0 49 8v-137q-55 -18 -104 -18q-66 0 -103 24q-16 12 -32 37q-23 31 -33 82q-145 -158 -330 -158q-72 0 -133 21q-88 31 -141 97.5t-53 158.5zM215 1108v211h178v-211h-178zM246 254q0 -59 46 -101t136 -42q41 0 83 10t90 37.5t79 89t31 147.5q0 10 -1 28.5t-1 29.5v18 q-293 -47 -344 -70q-119 -47 -119 -147zM616 1108v211h183v-211h-183z" />
<glyph unicode="&#xe5;" horiz-adv-x="1024" d="M66 250q0 127 104 209q121 90 391 108l148 11q0 53 -2 79q-2 37 -8.5 65t-26 66.5t-64.5 60t-114 21.5q-160 0 -199 -116q-10 -31 -10 -86l-170 10q0 39 16 94q31 90 115 156.5t239 66.5q74 0 152 -20q166 -43 215 -180q20 -57 20 -207v-316q0 -43 2 -63q6 -74 72 -74 q12 0 49 8v-137q-55 -18 -104 -18q-66 0 -103 24q-16 12 -32 37q-23 31 -33 82q-145 -158 -330 -158q-72 0 -133 21q-88 31 -141 97.5t-53 158.5zM246 254q0 -59 46 -101t136 -42q41 0 83 10t90 37.5t79 89t31 147.5q0 10 -1 28.5t-1 29.5v18q-293 -47 -344 -70 q-119 -47 -119 -147zM311 1245q0 80 56.5 137.5t136.5 57.5q82 -2 138 -58.5t56 -136.5t-57 -137t-137 -57t-136.5 57t-56.5 137zM399 1245q0 -43 30 -73.5t75 -30.5q43 0 73.5 31.5t30.5 74.5q0 41 -30.5 73t-73.5 32t-74 -32t-31 -75z" />
<glyph unicode="&#xe6;" horiz-adv-x="1662" d="M68 242q0 90 51 160.5t135 107.5q20 10 44 17.5t43 11.5t51 8t50.5 5t61.5 2t64.5 2t77.5 1h85q0 82 -10 121q-20 86 -79.5 139t-145.5 53q-53 0 -99 -20q-102 -51 -108 -174l-172 12q10 84 41 139q37 66 119.5 117t214.5 51q162 0 260 -90q35 -31 65 -82q31 45 66 76 q102 96 266 96q201 0 326 -157q123 -150 120 -400h-700q0 -150 70 -239q74 -96 206 -97q78 0 136.5 42t87.5 118q8 27 12 45l172 -26q-29 -111 -113 -191q-127 -121 -315 -121q-248 0 -363 203q-158 -203 -391 -203q-66 0 -127 19q-92 27 -147 92.5t-55 161.5zM238 248 q0 -55 48 -102.5t144 -47.5q127 0 209 86q88 92 92 254h-96q-117 0 -205 -18q-102 -20 -154 -78q-38 -39 -38 -94zM893 557h528q-8 129 -73 207q-80 96 -197 96q-127 0 -203 -115q-55 -82 -55 -188z" />
<glyph unicode="&#xe7;" d="M80 496q4 188 89 309t212 166q74 25 176 24q217 -4 342 -139q49 -51 80 -127q12 -31 14 -57l-180 -19q-14 72 -37 107q-72 117 -217 117q-133 4 -215 -91.5t-84 -293.5q-2 -201 84 -298.5t219 -97.5q68 0 118 22.5t76.5 50.5t45 74t22.5 66.5t11 55.5l176 -17 q-27 -156 -109 -239.5t-176 -114.5q-47 -12 -127 -21l-37 -61l31 -16q31 -16 47 -28.5t33.5 -42.5t17.5 -65q0 -78 -69.5 -127t-190.5 -49v47q4 -2 14 -2q45 0 70 24.5t23 53.5q-2 25 -18.5 42.5t-30 24.5t-42 17t-32.5 12l108 168q-127 12 -184 41q-117 55 -190.5 180.5 t-69.5 303.5z" />
<glyph unicode="&#xe8;" d="M80 492q0 207 108 337q137 166 359 166q78 0 151 -26q170 -59 244 -230q47 -113 47 -286h-733q-2 -213 139 -312q74 -49 174 -49q98 0 162 60q29 23 53 63q12 20 39 102l166 -22q-39 -96 -63 -135q-127 -190 -373 -191q-115 0 -203 39q-111 47 -190.5 164t-79.5 320z M260 571h551q-4 59 -14 95q-25 90 -96.5 146t-165.5 56q-123 0 -193 -85t-82 -212zM338 1362h182l84 -295h-98z" />
<glyph unicode="&#xe9;" d="M80 492q0 207 108 337q137 166 359 166q78 0 151 -26q170 -59 244 -230q47 -113 47 -286h-733q-2 -213 139 -312q74 -49 174 -49q98 0 162 60q29 23 53 63q12 20 39 102l166 -22q-39 -96 -63 -135q-127 -190 -373 -191q-115 0 -203 39q-111 47 -190.5 164t-79.5 320z M260 571h551q-4 59 -14 95q-25 90 -96.5 146t-165.5 56q-123 0 -193 -85t-82 -212zM485 1069l86 295h177l-177 -295h-86z" />
<glyph unicode="&#xea;" d="M80 492q0 207 108 337q137 166 359 166q78 0 151 -26q170 -59 244 -230q47 -113 47 -286h-733q-2 -213 139 -312q74 -49 174 -49q98 0 162 60q29 23 53 63q12 20 39 102l166 -22q-39 -96 -63 -135q-127 -190 -373 -191q-115 0 -203 39q-111 47 -190.5 164t-79.5 320z M260 571h551q-4 59 -14 95q-25 90 -96.5 146t-165.5 56q-123 0 -193 -85t-82 -212zM268 1071l193 309h139l213 -309h-156l-125 195l-120 -195h-144z" />
<glyph unicode="&#xeb;" d="M80 492q0 207 108 337q137 166 359 166q78 0 151 -26q170 -59 244 -230q47 -113 47 -286h-733q-2 -213 139 -312q74 -49 174 -49q98 0 162 60q29 23 53 63q12 20 39 102l166 -22q-39 -96 -63 -135q-127 -190 -373 -191q-115 0 -203 39q-111 47 -190.5 164t-79.5 320z M260 571h551q-4 59 -14 95q-25 90 -96.5 146t-165.5 56q-123 0 -193 -85t-82 -212zM266 1108v211h178v-211h-178zM668 1108v211h182v-211h-182z" />
<glyph unicode="&#xec;" horiz-adv-x="425" d="M18 1362h181l86 -295h-99zM137 0v965h158v-965h-158z" />
<glyph unicode="&#xed;" horiz-adv-x="425" d="M137 0v965h158v-965h-158zM156 1069l84 295h176l-176 -295h-84z" />
<glyph unicode="&#xee;" horiz-adv-x="425" d="M-51 1071l192 309h140l211 -309h-154l-125 195l-121 -195h-143zM137 0v965h158v-965h-158z" />
<glyph unicode="&#xef;" horiz-adv-x="425" d="M-76 1108v211h178v-211h-178zM137 0v965h158v-965h-158zM328 1108v211h180v-211h-180z" />
<glyph unicode="&#xf0;" horiz-adv-x="1110" d="M82 481q0 141 47 248q63 141 180 205.5t248 60.5q150 -2 264 -116q-59 205 -123 292l-364 -118l-37 92l338 112q-27 35 -146 154l127 59q43 -39 154 -170l174 60l39 -96l-152 -50q197 -317 197 -688q0 -129 -24 -211q-16 -61 -46 -116.5t-81.5 -109.5t-134.5 -87 t-185 -33q-125 0 -218 43t-140 102.5t-76 138.5t-35 130t-6 98zM260 458q0 -7 3 -45t10.5 -63.5t19.5 -66.5t34.5 -69t53.5 -56.5t76 -43t100 -14.5q131 0 213 93.5t82 289.5v15q0 193 -84 281.5t-213 84.5q-84 -2 -144.5 -37.5t-91 -95t-45 -120t-14.5 -130.5v-23z" />
<glyph unicode="&#xf1;" d="M131 0v965h164v-142q23 39 51 68q98 104 252 104q33 0 72 -7t101.5 -38.5t100.5 -87.5q29 -41 43.5 -95t15.5 -84t1 -108v-575h-162v614q0 129 -74 185q-57 43 -145 43q-106 0 -180 -72q-39 -39 -58 -88q-18 -45 -18 -133v-549h-164zM233 1104q41 205 181 203 q23 0 48 -5.5t42.5 -12.5t45.5 -18t42 -16q37 -18 78 -18q8 0 16 2t13 5l11 6q5 3 8 8.5t6 9.5t5 10l3 9q1 3 1 7l2 6h96q0 -6 -3 -24.5t-14 -51t-28.5 -60t-50.5 -48t-73.5 -20.5t-176.5 51q-59 20 -84 20q-47 0 -67 -63h-101z" />
<glyph unicode="&#xf2;" horiz-adv-x="1110" d="M82 477q0 207 111 350q131 168 370 168q106 0 193 -37q109 -45 191.5 -162.5t80.5 -314.5q0 -209 -113 -350q-135 -162 -358 -162q-211 0 -334 127q-141 141 -141 381zM260 471q0 -41 8 -98q6 -37 18.5 -74t42 -87t89 -81t139.5 -31q150 0 229 121q66 98 66 262 q10 135 -49 246q-25 45 -60 74q-72 61 -176 61q-88 0 -150.5 -38t-92 -83t-45 -111.5t-17.5 -96t-2 -64.5zM358 1362h183l84 -295h-97z" />
<glyph unicode="&#xf3;" horiz-adv-x="1110" d="M82 477q0 207 111 350q131 168 370 168q106 0 193 -37q109 -45 191.5 -162.5t80.5 -314.5q0 -209 -113 -350q-135 -162 -358 -162q-211 0 -334 127q-141 141 -141 381zM260 471q0 -41 8 -98q6 -37 18.5 -74t42 -87t89 -81t139.5 -31q150 0 229 121q66 98 66 262 q10 135 -49 246q-25 45 -60 74q-72 61 -176 61q-88 0 -150.5 -38t-92 -83t-45 -111.5t-17.5 -96t-2 -64.5zM498 1069l84 295h176l-176 -295h-84z" />
<glyph unicode="&#xf4;" horiz-adv-x="1110" d="M82 477q0 207 111 350q131 168 370 168q106 0 193 -37q109 -45 191.5 -162.5t80.5 -314.5q0 -209 -113 -350q-135 -162 -358 -162q-211 0 -334 127q-141 141 -141 381zM260 471q0 -41 8 -98q6 -37 18.5 -74t42 -87t89 -81t139.5 -31q150 0 229 121q66 98 66 262 q10 135 -49 246q-25 45 -60 74q-72 61 -176 61q-88 0 -150.5 -38t-92 -83t-45 -111.5t-17.5 -96t-2 -64.5zM291 1071l192 309h138l213 -309h-154l-125 195l-121 -195h-143z" />
<glyph unicode="&#xf5;" horiz-adv-x="1110" d="M82 477q0 207 111 350q131 168 370 168q106 0 193 -37q109 -45 191.5 -162.5t80.5 -314.5q0 -209 -113 -350q-135 -162 -358 -162q-211 0 -334 127q-141 141 -141 381zM256 1104q2 18 8 41.5t23.5 65.5t55.5 69t91 27q23 0 48.5 -5.5t43 -12.5l45 -18t41.5 -16 q37 -18 78 -18q57 0 66 63h98l-2 -6q0 -8 -2 -18t-6 -23.5t-9.5 -28t-12.5 -30.5t-16 -29.5t-21.5 -27t-27 -22.5t-33.5 -14t-40 -5q-43 0 -178 51q-59 20 -84 20q-47 0 -68 -63h-98zM260 471q0 -41 8 -98q6 -37 18.5 -74t42 -87t89 -81t139.5 -31q150 0 229 121 q66 98 66 262q10 135 -49 246q-25 45 -60 74q-72 61 -176 61q-88 0 -150.5 -38t-92 -83t-45 -111.5t-17.5 -96t-2 -64.5z" />
<glyph unicode="&#xf6;" horiz-adv-x="1110" d="M82 477q0 203 108 348q131 170 373 170q106 0 193 -37q109 -45 191.5 -162.5t80.5 -314.5q0 -287 -201 -430q-111 -82 -270 -82q-203 0 -324 117q-151 147 -151 391zM260 471q4 -150 57 -240q76 -133 236 -131q154 0 233 121q66 98 66 262q10 131 -45 240q-27 49 -64 80 q-72 61 -178 61q-86 0 -148.5 -38t-91 -83t-45 -111.5t-18.5 -97t-2 -63.5zM272 1108v211h179v-211h-179zM676 1108v211h180v-211h-180z" />
<glyph unicode="&#xf7;" horiz-adv-x="1482" d="M162 532v166h1159v-166h-1159zM651 168v225h183v-225h-183zM651 838v225h183v-225h-183z" />
<glyph unicode="&#xf8;" horiz-adv-x="1110" d="M78 92l88 86q-82 133 -82 299q0 123 41 223q55 135 172 215t262 80q174 0 315 -125l91 88l71 -73l-94 -94q27 -37 37 -64q51 -109 51 -248q0 -104 -31 -194q-16 -47 -43.5 -92.5t-79 -100.5t-135.5 -89t-188 -34q-197 0 -322 131l-81 -82zM256 496q0 -104 35 -193 l473 459q-96 102 -213 102q-80 0 -145 -43q-150 -94 -150 -325zM346 211q20 -29 29 -37q82 -76 190 -74q80 0 144 41q154 98 153 330q0 121 -41 201z" />
<glyph unicode="&#xf9;" d="M133 323v39v37v566h162v-549q0 -147 22 -195q47 -92 177 -92q154 0 229 111q47 70 47 241v484h160v-965h-160l-2 147q-16 -25 -41 -49q-123 -123 -287 -123q-180 0 -258 127q-10 16 -18 36t-13.5 35t-8.5 39t-5 35t-3 40t-1 36zM338 1362h182l84 -295h-98z" />
<glyph unicode="&#xfa;" d="M133 323v39v37v566h162v-549q0 -147 22 -195q47 -92 177 -92q154 0 229 111q47 70 47 241v484h160v-965h-160l-2 147q-16 -25 -41 -49q-123 -123 -287 -123q-180 0 -258 127q-10 16 -18 36t-13.5 35t-8.5 39t-5 35t-3 40t-1 36zM475 1069l86 295h176l-176 -295h-86z" />
<glyph unicode="&#xfb;" d="M133 323v39v37v566h162v-549q0 -147 22 -195q47 -92 177 -92q154 0 229 111q47 70 47 241v484h160v-965h-160l-2 147q-16 -25 -41 -49q-123 -123 -287 -123q-180 0 -258 127q-10 16 -18 36t-13.5 35t-8.5 39t-5 35t-3 40t-1 36zM268 1071l193 309h139l213 -309h-156 l-125 195l-120 -195h-144z" />
<glyph unicode="&#xfc;" d="M133 323v39v37v566h162v-549q0 -147 22 -195q47 -92 177 -92q154 0 229 111q47 70 47 241v484h160v-965h-160l-2 147q-16 -25 -41 -49q-123 -123 -287 -123q-180 0 -258 127q-10 16 -18 36t-13.5 35t-8.5 39t-5 35t-3 40t-1 36zM238 1108v211h178v-211h-178zM639 1108 v211h182v-211h-182z" />
<glyph unicode="&#xfd;" horiz-adv-x="894" d="M18 -309q49 -16 101 -17q78 -2 116.5 38t67.5 128q4 12 53 154l-327 971h174l241 -766l256 766h170l-405 -1141q-63 -178 -123.5 -239.5t-173.5 -61.5q-76 0 -135 16l-15 4v148zM401 1069l84 295h177l-177 -295h-84z" />
<glyph unicode="&#xfe;" horiz-adv-x="1150" d="M133 -459v1905h160v-621q127 158 332 170q143 4 254 -80q195 -143 192 -438q-2 -217 -119.5 -363.5t-339.5 -144.5q-205 2 -319 144v-572h-160zM293 461q2 -150 81 -250t232 -98q92 2 156 41q63 41 102 124.5t39 198.5q2 154 -75.5 262.5t-235.5 102.5q-88 -4 -156 -49 q-143 -94 -143 -332z" />
<glyph unicode="&#xff;" horiz-adv-x="894" d="M18 -309q59 -16 105 -17q59 0 90 21q53 35 102 180l41 119l-327 971h174l241 -766l256 766h170l-405 -1141q-43 -117 -62 -152q-41 -82 -94 -115.5t-145 -33.5q-72 0 -146 20v148zM160 1108v211h178v-211h-178zM561 1108v211h182v-211h-182z" />
<glyph unicode="&#x152;" horiz-adv-x="2347" d="M102 729q0 309 177 520q195 233 532 234q287 0 455 -189v152h1003v-172h-819v-449h661v-168h-661v-489h842v-168h-1026v168q-188 -205 -475 -205q-279 0 -461 180q-228 221 -228 586zM307 721q0 -238 111 -397q139 -201 377 -201q236 0 366 188q100 147 105 418 q0 266 -97 412q-127 193 -368 192q-213 0 -348 -155q-146 -172 -146 -457z" />
<glyph unicode="&#x153;" horiz-adv-x="1792" d="M86 481q0 188 82 312q133 203 387 202q213 0 350 -178q129 178 352 178q221 0 347 -166q113 -152 112 -391h-727q0 -129 70 -223q88 -117 229 -115q102 0 172 72q35 37 53 76q6 12 11.5 25.5t8.5 24.5t5 13l166 -22q-39 -119 -131 -205q-121 -115 -297 -115 q-211 0 -336 148q-6 6 -20.5 24.5t-14.5 20.5q-127 -193 -356 -193q-123 0 -230 58q-96 53 -165.5 162.5t-67.5 291.5zM260 477q0 -233 135 -325q63 -45 148 -46q68 0 127 33q70 37 108.5 122t42.5 130t4 86q0 225 -118 324q-63 57 -164 57q-57 0 -117 -27 q-70 -37 -118 -125t-48 -229zM989 561l547 2q-6 63 -27 115q-72 186 -247 186q-57 0 -107 -24q-76 -37 -117 -113t-49 -166z" />
<glyph unicode="&#x178;" horiz-adv-x="1280" d="M29 1446h227l381 -612l385 612h229l-520 -784v-662h-194v662zM350 1599v209h178v-209h-178zM752 1599v209h178v-209h-178z" />
<glyph unicode="&#x2c6;" horiz-adv-x="555" d="M6 1071l193 309h137l213 -309h-154l-125 195l-120 -195h-144z" />
<glyph unicode="&#x2dc;" horiz-adv-x="555" d="M-20 1104q0 14 7 42t22.5 66.5t54 66.5t92.5 28q29 0 57.5 -7.5t69.5 -23.5t55 -21q0 -2 11 -6t29.5 -8t33.5 -4q25 0 41 13.5t20 26.5t4 23h101h-3q0 -18 -9 -59t-51 -93t-107 -52q-45 0 -177 51q-59 20 -84 20q-35 0 -51 -23.5t-16 -39.5h-100z" />
<glyph unicode="&#x2000;" horiz-adv-x="964" />
<glyph unicode="&#x2001;" horiz-adv-x="1931" />
<glyph unicode="&#x2002;" horiz-adv-x="964" />
<glyph unicode="&#x2003;" horiz-adv-x="1931" />
<glyph unicode="&#x2004;" horiz-adv-x="643" />
<glyph unicode="&#x2005;" horiz-adv-x="481" />
<glyph unicode="&#x2006;" horiz-adv-x="321" />
<glyph unicode="&#x2007;" horiz-adv-x="321" />
<glyph unicode="&#x2008;" horiz-adv-x="239" />
<glyph unicode="&#x2009;" horiz-adv-x="385" />
<glyph unicode="&#x200a;" horiz-adv-x="106" />
<glyph unicode="&#x2010;" horiz-adv-x="757" d="M92 537v155h574v-155h-574z" />
<glyph unicode="&#x2011;" horiz-adv-x="757" d="M92 537v155h574v-155h-574z" />
<glyph unicode="&#x2012;" horiz-adv-x="757" d="M92 537v155h574v-155h-574z" />
<glyph unicode="&#x2013;" horiz-adv-x="1228" d="M92 537v155h1045v-155h-1045z" />
<glyph unicode="&#x2014;" horiz-adv-x="1832" d="M92 537v155h1649v-155h-1649z" />
<glyph unicode="&#x2018;" horiz-adv-x="468" d="M129 901v105q0 131 17.5 217t68.5 223h96q-53 -156 -67 -322h88v-223h-203z" />
<glyph unicode="&#x2019;" horiz-adv-x="468" d="M129 1221v225h203v-107q0 -244 -84 -438h-96q68 195 67 320h-90z" />
<glyph unicode="&#x201a;" horiz-adv-x="468" d="M129 0v223h203v-123q0 -231 -84 -419h-96q68 195 67 319h-90z" />
<glyph unicode="&#x201c;" horiz-adv-x="768" d="M129 901v117q0 231 86 428h96q-68 -186 -67 -322h88v-223h-203zM434 901v117q0 231 86 428h94q-61 -143 -65 -322h88v-223h-203z" />
<glyph unicode="&#x201d;" horiz-adv-x="768" d="M129 1221v225h203v-125q0 -231 -84 -420h-96q68 195 67 320h-90zM434 1221v225h203v-137q0 -178 -62 -348l-12 -30l-12 -30h-94q49 143 65 320h-88z" />
<glyph unicode="&#x201e;" horiz-adv-x="768" d="M129 0v223h203v-123q0 -231 -84 -419h-96q68 195 67 319h-90zM434 0v223h203v-137q0 -172 -62 -346q-4 -10 -12 -29.5t-12 -29.5h-94q51 156 65 319h-88z" />
<glyph unicode="&#x2022;" horiz-adv-x="681" d="M109 494v464h466v-464h-466z" />
<glyph unicode="&#x2026;" horiz-adv-x="2048" d="M244 0v190h192v-190h-192zM926 0v190h194v-190h-194zM1610 0v190h194v-190h-194z" />
<glyph unicode="&#x202f;" horiz-adv-x="385" />
<glyph unicode="&#x2039;" horiz-adv-x="512" d="M98 520v170l275 238v-183l-164 -145l164 -135v-176z" />
<glyph unicode="&#x203a;" horiz-adv-x="512" d="M139 274v185l164 143l-164 137v174l275 -231v-170z" />
<glyph unicode="&#x205f;" horiz-adv-x="481" />
<glyph unicode="&#x20ac;" horiz-adv-x="1433" d="M47 547l47 127h103q0 68 4 100h-154l47 127h121q53 281 229.5 431.5t460.5 150.5q156 0 269.5 -33t214.5 -121l-66 -186q-145 186 -397 186q-414 0 -502 -428h817l-45 -127h-786v-41q0 -10 1 -29.5t1 -29.5h749l-45 -127h-690q37 -203 167 -312.5t335 -109.5 q135 0 257 52t201 155v-217q-190 -152 -483 -152q-285 0 -467 151.5t-227 432.5h-162z" />
<glyph unicode="&#x2122;" horiz-adv-x="1421" d="M47 1346v100h512v-100h-194v-580h-121v580h-197zM629 766v680h159l168 -543l162 543h154v-680h-111l4 534l-159 -534h-111l-154 526l2 -526h-114z" />
<glyph unicode="&#xe000;" horiz-adv-x="965" d="M0 965h965v-965h-965v965z" />
<glyph unicode="&#xfb01;" horiz-adv-x="980" d="M696 0v965h158v-965h-158zM696 1257v189h158v-189h-158zM23 829v136h159v84q0 193 25 254q51 133 229 133q53 0 119 -13l-2 -129q-31 10 -88 11q-76 0 -105 -56q-18 -33 -18 -116v-168h182v-136h-182v-829h-160v829h-159z" />
<glyph unicode="&#xfb02;" horiz-adv-x="980" d="M692 0v1446h156v-1446h-156zM23 829v136h159v84q0 193 25 254q51 133 229 133q53 0 119 -13l-2 -129q-31 10 -88 11q-76 0 -105 -56q-18 -33 -18 -116v-168h182v-136h-182v-829h-160v829h-159z" />
<glyph unicode="&#xfb03;" horiz-adv-x="1536" d="M1251 0v965h158v-965h-158zM1251 1257v189h158v-189h-158zM578 829v136h159v84q0 193 25 254q51 133 229 133q53 0 119 -13l-2 -129q-31 10 -88 11q-76 0 -105 -56q-18 -33 -18 -116v-168h182v-136h-182v-829h-160v829h-159zM23 829v136h159v84q0 193 25 254 q51 133 229 133q53 0 119 -13l-2 -129q-31 10 -88 11q-76 0 -105 -56q-18 -33 -18 -116v-168h182v-136h-182v-829h-160v829h-159z" />
<glyph unicode="&#xfb04;" horiz-adv-x="1536" d="M1247 0v1446h156v-1446h-156zM578 829v136h159v84q0 193 25 254q51 133 229 133q53 0 119 -13l-2 -129q-31 10 -88 11q-76 0 -105 -56q-18 -33 -18 -116v-168h182v-136h-182v-829h-160v829h-159zM23 829v136h159v84q0 193 25 254q51 133 229 133q53 0 119 -13l-2 -129 q-31 10 -88 11q-76 0 -105 -56q-18 -33 -18 -116v-168h182v-136h-182v-829h-160v829h-159z" />
</font>
</defs>
</svg>
