<?xml version="1.0" standalone="no"?>
<!DOCTYPE svg PUBLIC "-//W3C//DTD SVG 1.1//EN" "http://www.w3.org/Graphics/SVG/1.1/DTD/svg11.dtd" >
<svg xmlns="http://www.w3.org/2000/svg">
<metadata>
This is a custom SVG webfont generated by Font Squirrel.
Copyright   : Copyright  1997 2001 Berthold LLC All rights reserved AkzidenzGrotesk is a trademark of Berthold Types Limited
</metadata>
<defs>
<font id="AkzidenzGroteskBQMedium" horiz-adv-x="1150" >
<font-face units-per-em="2048" ascent="1638" descent="-410" />
<missing-glyph horiz-adv-x="589" />
<glyph unicode=" "  horiz-adv-x="589" />
<glyph unicode="&#x09;" horiz-adv-x="589" />
<glyph unicode="&#xa0;" horiz-adv-x="589" />
<glyph unicode="!" horiz-adv-x="512" d="M164 0v283h268v-283h-268zM164 893v553h268v-553l-78 -533h-114z" />
<glyph unicode="&#x22;" horiz-adv-x="679" d="M72 1522h196l-61 -613h-72zM410 1522h198l-63 -613h-70z" />
<glyph unicode="#" horiz-adv-x="1366" d="M86 438v205h276l27 193h-258v204h285l55 406h213l-57 -406h200l56 406h207l-56 -406h242v-204h-268l-29 -193h252v-205h-277l-63 -438h-207l64 438h-203l-62 -438h-209l62 438h-250zM569 643h205l27 193h-203z" />
<glyph unicode="$" horiz-adv-x="1280" d="M72 272l207 158q57 -82 145 -139q53 -31 72 -35q18 -8 49 -10v391q-274 29 -375 170q-59 92 -59 199q0 147 88 254q121 143 346 167v222h188v-222q266 -25 443 -223l-195 -153q-43 55 -95 90t-77 43t-76 20v-327q197 -27 320 -117q147 -111 147 -311q0 -180 -119 -299 q-66 -66 -155 -105q-70 -27 -193 -45v-233h-188v233q-106 20 -169 39.5t-132 66.5q-61 43 -109 91q-20 20 -63 75zM379 1047q0 -59 41 -91q41 -33 125 -47v295q-2 0 -20.5 -4t-28.5 -8q-117 -43 -117 -145zM733 242q35 4 62 16q135 57 135 176q-2 131 -197 174v-366z" />
<glyph unicode="%" horiz-adv-x="1792" d="M53 928q0 213 74 329q90 137 264 138q121 0 199 -70t108 -188q20 -76 21 -199q4 -215 -72 -336q-86 -141 -264 -141q-160 0 -250 125q-43 61 -61 143q-19 74 -19 199zM238 922q0 -100 14 -166q18 -82 65 -115q35 -20 70 -20q68 0 105 57q43 63 43 250q0 168 -35 237 q-37 74 -113 74q-78 0 -115 -76q-34 -71 -34 -241zM487 -12l646 1401l139 -66l-643 -1399zM1075 459q0 174 49 276q88 184 291 185q152 0 236 -117q51 -68 71 -158q16 -66 19 -188q0 -131 -19 -203q-8 -37 -24.5 -73t-50 -85t-96 -79.5t-144.5 -30.5q-176 0 -262 137 q-70 109 -70 336zM1260 444q0 -100 14 -165q18 -82 65 -115q35 -20 70 -21q68 0 104 58q43 63 43 250q0 168 -34 237q-37 74 -113 74q-78 0 -115 -76q-34 -72 -34 -242z" />
<glyph unicode="&#x26;" horiz-adv-x="1323" d="M88 377q0 74 27 145q25 66 78 123t87.5 82t120.5 80q-61 98 -61 213q0 141 84 233q90 102 250 103q74 0 143 -27q84 -37 137.5 -112.5t53.5 -167.5q0 -90 -63.5 -184.5t-209.5 -145.5q12 -25 30.5 -52.5t41 -59.5t35.5 -50q59 -88 82 -113q14 20 25.5 40t18.5 39.5 t12 34.5t8 34.5t5 29t4 28t2 22.5l236 -2q-6 -51 -12 -76q-47 -197 -154 -330q35 -37 64.5 -50t78.5 -13q8 0 45 4v-205q-66 -6 -100 -6q-100 0 -154.5 20.5t-109.5 61.5q-160 -106 -346 -107q-197 0 -320 101q-139 117 -139 307zM336 393q0 -57 24 -96q59 -115 201 -115 q106 0 199 78l-248 363q-33 -16 -72 -45q-104 -83 -104 -185zM571 1055q0 -63 62 -154l37 12q20 6 42.5 17.5t51.5 45.5t29 79q0 49 -32 78.5t-81 29.5q-47 0 -79 -30.5t-30 -77.5z" />
<glyph unicode="'" horiz-adv-x="339" d="M72 1522h196l-61 -613h-72z" />
<glyph unicode="(" horiz-adv-x="667" d="M72 647q0 387 217 694q59 80 129 154q78 78 166 143l94 -104q-100 -102 -156 -178q-199 -281 -198 -686q0 -274 95 -511t263 -374l-90 -121q-35 25 -49 37q-139 115 -234 236q-237 304 -237 710z" />
<glyph unicode=")" horiz-adv-x="671" d="M-2 -231q100 102 156 178q201 283 200 688q0 274 -94 508.5t-262 374.5l90 120q12 -8 27.5 -20t19.5 -16q133 -106 234 -236q238 -313 237 -711q0 -387 -219 -694q-109 -154 -295 -297z" />
<glyph unicode="*" horiz-adv-x="774" d="M41 1126l51 170l201 -57v211h178v-213l205 70l57 -166l-201 -70l123 -162l-139 -108l-131 170l-119 -170l-143 104l115 164z" />
<glyph unicode="+" horiz-adv-x="1482" d="M190 532v220h418v436h266v-436h418v-220h-418v-442h-266v442h-418z" />
<glyph unicode="," horiz-adv-x="425" d="M76 0v281h272v-301v-9q0 -106 -55 -163.5t-166 -83.5q-20 -4 -35 -9v119q111 12 111 166h-127z" />
<glyph unicode="-" horiz-adv-x="761" d="M84 506v231h592v-231h-592z" />
<glyph unicode="." horiz-adv-x="425" d="M76 0v281h270v-281h-270z" />
<glyph unicode="/" horiz-adv-x="980" d="M27 0l686 1446h243l-686 -1446h-243z" />
<glyph unicode="0" d="M74 688q0 262 61.5 409.5t182 227.5t270.5 80q168 0 286 -98q209 -170 209 -611q-2 -242 -53 -385t-151 -225q-127 -104 -304 -104q-240 0 -376 180q-125 164 -125 526zM338 684q0 -131 14 -231q33 -160 113 -213q49 -31 115 -31q59 0 102 24q74 41 104 144q31 98 31 315 q4 209 -31 301q-6 35 -30 82q-59 102 -172 103q-94 0 -150 -64q-96 -108 -96 -430z" />
<glyph unicode="1" d="M154 961v157h26q162 0 240 58q84 59 119 206h204v-1382h-251v791v34v31q0 8 -1.5 23.5t-3.5 22.5t-7 16.5t-11 17.5q-25 25 -92 25h-223z" />
<glyph unicode="2" d="M117 0v201q287 205 483 424q150 168 150 338q0 90 -47.5 148t-135.5 58q-72 0 -121 -43q-37 -33 -54 -89t-18 -87.5t-1 -101.5l-256 24q-2 225 98 359q47 66 141.5 120t233.5 54q190 0 313 -113q133 -121 129 -321q0 -121 -53 -230q-20 -41 -50 -84t-51.5 -70.5 t-70.5 -73.5t-63.5 -59.5t-78 -66.5t-67.5 -57q-106 -90 -147 -117h606v-213h-940z" />
<glyph unicode="3" d="M96 453h273q-8 -53 2 -97q14 -57 64 -104t147 -47q61 0 112 26q104 55 105 193q0 72 -37 123q-59 84 -207 80l-66 -2v215q12 0 51.5 -2t58.5 0t50 7t52.5 19.5t37.5 38.5q29 39 29 98q0 78 -49 127.5t-127 49.5q-90 0 -146 -68q-51 -63 -53 -164l-270 58q49 270 266 358 q102 43 211 43q47 0 105 -10q33 -6 63.5 -15.5t83.5 -36t91 -62.5t67.5 -100.5t29.5 -142.5q0 -172 -122 -252q-45 -29 -107 -45q109 -20 186 -104q76 -92 76 -229q0 -197 -143 -316q-131 -111 -352 -110q-236 0 -359 124t-123 347z" />
<glyph unicode="4" d="M35 317v181l606 884h252v-854h178v-211h-178v-317h-252v317h-606zM299 528h342l14 549z" />
<glyph unicode="5" d="M76 387l284 19q4 -90 57.5 -147.5t141.5 -55.5q68 0 111 26q57 33 85.5 106t28.5 146q0 53 -16 105q-12 33 -30.5 62.5t-67.5 61t-115 31.5q-29 0 -61.5 -6t-78.5 -37.5t-67 -85.5l-229 15l96 759h768l-20 -231h-537l-47 -305q27 27 33 31q96 72 233 71q184 0 301 -129 t117 -329q0 -211 -123 -349q-145 -164 -393 -163q-195 0 -318 94q-141 110 -153 311z" />
<glyph unicode="6" d="M98 651q0 307 95 496q37 76 96 131q127 127 321 127q176 0 297 -102q100 -86 127 -244l-262 -35q0 37 -12 66q-41 90 -150 90q-137 0 -194 -144q-45 -106 -49 -284q31 39 61 63q98 76 229 76q156 0 267 -103q127 -123 127 -327q0 -195 -113 -324q-139 -156 -352 -155 q-154 0 -269 81q-219 158 -219 588zM389 434q0 -145 100 -201q41 -23 101 -22q102 0 155 70q47 59 48 155q0 82 -37 139q-53 84 -160 84q-98 0 -152.5 -64.5t-54.5 -160.5z" />
<glyph unicode="7" d="M131 1145v241h918v-225q-66 -80 -138 -188q-156 -244 -245 -543q-63 -221 -82 -430h-338q14 106 40.5 212.5t53.5 188.5t71 175.5t71.5 149.5t79.5 137t71.5 111t69 98.5t53.5 72.5h-625z" />
<glyph unicode="8" d="M59 397q0 106 50 183q59 94 178 145q-53 27 -94 68q-84 96 -84 231q0 100 51 184q51 80 155.5 138.5t270.5 58.5q113 0 196 -29q37 -12 76 -33.5t87 -62.5t79 -110.5t31 -155.5q0 -199 -181 -289q55 -25 105 -72q109 -102 108 -254q0 -117 -57 -206q-53 -86 -169 -148.5 t-290 -62.5q-117 0 -217 32q-39 12 -80 35t-94 66t-87 116.5t-34 165.5zM348 406q0 -86 64 -144q63 -51 172 -51q98 0 163.5 50t65.5 147q0 80 -43 125t-88 59q-53 14 -100 14q-68 0 -111 -16q-123 -51 -123 -184zM371 993q0 -78 49 -127q29 -25 61 -39q35 -14 103 -14 q53 0 92 14q111 39 110 166q0 78 -45 127q-29 29 -63 43q-45 16 -98 17q-55 0 -88 -13q-121 -39 -121 -174z" />
<glyph unicode="9" d="M102 332l281 39q8 -49 20 -76q41 -88 148 -86q51 0 88 22q74 47 106.5 161t30.5 222q-27 -43 -82 -71q-86 -49 -194 -49q-150 0 -256 86q-141 119 -142 348q0 123 41 215q43 98 148.5 180t279.5 82q145 0 246 -64q61 -41 103 -92q35 -45 53 -82q86 -162 86 -419 q0 -322 -115 -519q-45 -80 -108 -137q-68 -57 -156 -86q-80 -25 -162 -24q-236 0 -350 174q-43 65 -66 176zM369 952q0 -41 8 -82q6 -23 15 -44t29.5 -48.5t57.5 -45t84 -17.5q135 0 180 131q12 39 13 94q0 61 -13 100q-25 80 -78 111t-104 31q-45 0 -90 -25 q-102 -58 -102 -205z" />
<glyph unicode=":" horiz-adv-x="512" d="M160 0v281h270v-281h-270zM160 760v282h270v-282h-270z" />
<glyph unicode=";" horiz-adv-x="512" d="M160 0v281h272v-299q0 -123 -62.5 -179.5t-195.5 -89.5v123q113 14 113 144v20h-127zM160 760v282h272v-282h-272z" />
<glyph unicode="&#x3c;" horiz-adv-x="1482" d="M231 526v252l953 467v-254l-709 -332l709 -335v-267z" />
<glyph unicode="=" horiz-adv-x="1482" d="M203 303v219h1077v-219h-1077zM203 719v219h1077v-219h-1077z" />
<glyph unicode="&#x3e;" horiz-adv-x="1482" d="M291 977l2 266l952 -469v-252l-952 -467v254l708 332z" />
<glyph unicode="?" d="M109 997q12 121 38 191q55 143 179.5 212.5t285.5 69.5q201 0 342.5 -114.5t141.5 -313.5q0 -190 -152 -313q-10 -8 -78 -55q-86 -59 -110.5 -102.5t-24.5 -141.5q0 -39 2 -57h-241v51q0 223 57 303q31 45 101.5 91t116.5 96.5t46 127.5q0 84 -65.5 139.5t-149.5 55.5 q-115 0 -178.5 -76t-63.5 -192zM477 0v281h273v-281h-273z" />
<glyph unicode="@" horiz-adv-x="1835" d="M141 481q0 260 122 484.5t340 358.5t480 134q274 0 442.5 -160.5t168.5 -435.5q0 -104 -25 -205q-25 -111 -70 -204q-61 -125 -163.5 -218.5t-221.5 -93.5q-160 0 -178 158q-125 -158 -276 -158q-135 0 -206 98.5t-71 239.5q0 129 49.5 260t154 228.5t237.5 97.5 q150 0 225 -147l25 104h161l-67 -315q-57 -258 -58 -345q0 -76 52 -75q41 0 106 65q82 82 131 229.5t49 276.5q0 219 -131 341t-348 122t-399.5 -120t-284.5 -311.5t-102 -406.5q0 -281 181 -440.5t466 -159.5q186 0 361 80t313 219l82 -104q-328 -332 -756 -332 q-168 0 -330 61q-459 180 -459 674zM670 489q0 -131 84 -174q29 -16 61 -16h8q84 6 147.5 80t91.5 164t28 172q0 78 -40 136t-114 58q-84 0 -148.5 -75.5t-91 -169t-26.5 -175.5z" />
<glyph unicode="A" horiz-adv-x="1323" d="M12 0l490 1446h307l494 -1446h-289l-84 283h-543l-84 -283h-291zM459 520h399l-199 666z" />
<glyph unicode="B" horiz-adv-x="1409" d="M164 0v1446h518q145 0 217 -6q162 -14 258 -117q92 -98 92 -231q0 -33 -6 -70t-37.5 -96.5t-87.5 -94.5q-39 -25 -108 -38q70 -14 110 -39q197 -104 197 -344q0 -236 -191 -344q-18 -10 -38.5 -19.5t-37 -15.5t-40 -11.5t-36.5 -8.5t-41 -5t-38 -3t-42 -2t-39 -1h-42h-41 h-567zM432 233h303q139 0 191 23q41 18 69 51q45 49 45 127q0 133 -116 193q-35 18 -90.5 25t-95.5 8.5t-154 1.5h-152v-429zM432 864h94q143 0 217 4q129 8 183 66q45 45 45 113q0 55 -35 100q-12 14 -24.5 25.5t-30 19.5t-29.5 13t-35.5 9.5t-34 6.5t-37 3t-33.5 1h-36 h-33h-211v-361z" />
<glyph unicode="C" horiz-adv-x="1409" d="M76 727q0 285 133 475q195 281 553 281q324 0 487 -230q57 -86 101 -217l-269 -69q-6 59 -37 114q-41 76 -115 116q-71 38 -154 38h-9q-90 0 -168 -39q-94 -47 -161.5 -162.5t-67.5 -300.5q0 -209 86 -342q45 -68 104 -106q94 -66 211 -66q160 0 266 131q16 20 58 88 q10 25 26 72l256 -107q-49 -117 -108 -194q-193 -246 -516 -246q-158 0 -291 62q-70 33 -131.5 84t-122 133t-96 207.5t-35.5 277.5z" />
<glyph unicode="D" horiz-adv-x="1449" d="M145 0v1446h519q125 0 208 -16q213 -43 349 -218q150 -199 149 -501q0 -152 -39 -281t-133 -237.5t-237 -153.5q-125 -39 -355 -39h-461zM416 244h71q219 0 297 12q139 23 213 113q86 109 86 344q0 272 -139 395q-66 55 -151 78q-61 16 -234 16h-143v-958z" />
<glyph unicode="E" horiz-adv-x="1280" d="M160 0v1446h1028v-242h-762v-340h698v-233h-698v-387h813v-244h-1079z" />
<glyph unicode="F" d="M166 0v1446h956v-242h-688v-360h604v-232h-604v-612h-268z" />
<glyph unicode="G" horiz-adv-x="1536" d="M94 709q0 307 170 522q31 39 72 75.5t106.5 80t157.5 70t195 26.5q123 0 237 -43q266 -104 371 -383l-258 -103q-100 285 -352 285q-156 0 -261 -104q-143 -147 -143 -418q0 -276 166 -416q98 -82 244 -82q111 0 197.5 53.5t127.5 151.5q20 47 31 129h-360v238h608v-791 h-232l-2 123q-172 -160 -397 -160q-276 0 -463 182q-215 216 -215 564z" />
<glyph unicode="H" horiz-adv-x="1492" d="M164 0v1446h272v-545h621v545h272v-1446h-272v657h-621v-657h-272z" />
<glyph unicode="I" horiz-adv-x="598" d="M164 0v1446h266v-1446h-266z" />
<glyph unicode="J" horiz-adv-x="811" d="M53 -12v266q92 -20 144 -21q74 0 131 31q14 8 25.5 18.5t19.5 19.5t15 24.5t11 25.5t7.5 28.5t4.5 27t2 31t1 28.5v29v26v924h266v-1098q0 -145 -78 -237q-121 -141 -381 -142q-88 1 -168 19z" />
<glyph unicode="K" horiz-adv-x="1366" d="M164 0v1446h268v-664l580 664h317l-473 -545l506 -901h-309l-385 680l-236 -270v-410h-268z" />
<glyph unicode="L" horiz-adv-x="1067" d="M168 0v1446h272v-1200h574v-246h-846z" />
<glyph unicode="M" horiz-adv-x="1662" d="M156 0v1446h393l282 -1073l279 1073h391v-1446h-264l27 1188l-314 -1188h-243l-314 1188l27 -1188h-264z" />
<glyph unicode="N" horiz-adv-x="1449" d="M168 0v1446h244l641 -1020l-33 1020h266v-1446h-237l-633 1014l16 -1014h-264z" />
<glyph unicode="O" horiz-adv-x="1579" d="M98 721q0 152 43 280q72 219 247 350.5t405 131.5q313 0 512 -230q182 -207 180 -530q0 -336 -201 -553q-109 -117 -246 -166q-113 -41 -252 -41q-301 0 -495 223q-193 220 -193 535zM377 731q0 -319 205 -455q94 -61 213 -61q90 0 166 35q100 47 173.5 153.5t77.5 290.5 q0 9 1 18q0 195 -87 332q-117 190 -335 191q-98 0 -185 -43q-94 -51 -161.5 -164t-67.5 -297z" />
<glyph unicode="P" horiz-adv-x="1280" d="M168 0v1446h487h105q246 -16 375 -168q109 -125 108 -313q0 -266 -192 -392q-59 -37 -132 -56t-126.5 -22t-143.5 -3h-211v-492h-270zM438 713h195q10 0 28.5 1t28.5 1q176 8 236 106q39 68 39 152q0 76 -33 135q-29 49 -82 74.5t-93 28.5t-112 3h-207v-501z" />
<glyph unicode="Q" horiz-adv-x="1579" d="M74 723q0 315 172 526q195 233 516 234q258 0 436 -146q127 -102 191.5 -259.5t64.5 -332.5q0 -205 -72 -374q-18 -37 -32 -64q10 -25 36 -45q31 -25 87.5 -44t95.5 -19q10 0 28 4l-75 -260q-59 16 -64 18q-113 45 -246 160q-182 -158 -456 -158q-311 0 -496 213 q-74 82 -130 220.5t-56 326.5zM362 715q0 -90 25 -174q41 -141 143.5 -230.5t245.5 -89.5q156 0 254 111q133 147 133 393q0 313 -211 442q-100 57 -196 58q-156 0 -264 -125q-130 -156 -130 -385z" />
<glyph unicode="R" horiz-adv-x="1323" d="M166 0v1446h592q256 0 389 -176q88 -117 88 -283q0 -88 -27 -162q-25 -66 -87 -134t-171 -101l322 -590h-309l-285 537h-244v-537h-268zM434 762h96q98 0 143.5 1t96.5 9t82 25q109 59 109 192q0 121 -91 180q-66 43 -217 43h-219v-450z" />
<glyph unicode="S" horiz-adv-x="1366" d="M47 272l227 158q145 -217 449 -217q63 0 106 10q29 6 61 18.5t71.5 56.5t39.5 105q0 51 -26 86q-14 18 -35.5 34t-55.5 27t-52.5 16t-61.5 14.5t-47 9.5l-172 39q-158 35 -219 67q-207 106 -207 336q0 121 55 213q57 98 186.5 168t329.5 70q369 0 584 -293l-223 -166 q-135 215 -375 215q-199 0 -256 -111q-16 -31 -16 -65.5t18 -65.5q25 -41 77 -61.5t171 -44.5l149 -33q131 -29 225.5 -68.5t159.5 -115.5q84 -92 84 -244q0 -197 -141 -317q-176 -150 -473 -150q-358 0 -563 215q-43 47 -70 94z" />
<glyph unicode="T" d="M45 1202v244h1063v-244h-399v-1202h-271v1202h-393z" />
<glyph unicode="U" horiz-adv-x="1492" d="M164 586v860h272v-889q0 -117 15 -160q53 -172 297 -172q233 0 292 164q18 53 19 182v875h270v-834v-32q0 -209 -24 -285q-43 -131 -184.5 -231.5t-383.5 -100.5q-303 0 -458 172q-63 63 -93 156q-22 74 -22 295z" />
<glyph unicode="V" horiz-adv-x="1236" d="M16 1446h285l324 -1141l315 1141h279l-412 -1446h-365z" />
<glyph unicode="W" horiz-adv-x="1705" d="M25 1446h276l197 -1102l225 1102h252l229 -1102l203 1102h279l-318 -1446h-315l-203 1006l-209 -1006h-315z" />
<glyph unicode="X" horiz-adv-x="1323" d="M18 0l486 784l-416 662h311l263 -414l251 414h314l-408 -662l490 -784h-310l-337 535l-330 -535h-314z" />
<glyph unicode="Y" horiz-adv-x="1280" d="M20 1446h308l313 -598l315 598h304l-488 -875v-571h-268v571z" />
<glyph unicode="Z" horiz-adv-x="1236" d="M49 0v221l791 983h-723v242h1061v-229l-760 -973h760v-244h-1129z" />
<glyph unicode="[" horiz-adv-x="583" d="M121 -295v1890h420v-149h-199v-1593h199v-148h-420z" />
<glyph unicode="\" horiz-adv-x="980" d="M27 1446h243l686 -1446h-243z" />
<glyph unicode="]" horiz-adv-x="583" d="M41 -145h199v1593h-199v147h420v-1890h-420v150z" />
<glyph unicode="^" horiz-adv-x="1482" d="M188 582l428 864h258l422 -864h-268l-278 630l-283 -630h-279z" />
<glyph unicode="_" horiz-adv-x="1024" d="M-20 -266h1064v-189h-1064v189z" />
<glyph unicode="`" horiz-adv-x="555" d="M72 1446h305l106 -272h-182z" />
<glyph unicode="a" horiz-adv-x="1110" d="M53 297q0 162 140 256q78 53 258 88q199 41 282 70q0 55 -14 84q-37 70 -162 69q-131 0 -180 -63q-27 -33 -27 -90l-250 14q6 152 111 236q113 94 338 94q217 0 330 -80q51 -37 73 -82q27 -53 27 -182v-545q0 -59 7 -89t38 -77h-291l-6 80q-45 -37 -94 -57 q-104 -47 -207 -48q-229 0 -328 158q-47 76 -45 164zM313 307q0 -51 41 -86t127 -35q92 0 154.5 37t83.5 80q14 29 14 94v113q-76 -39 -194 -57q-12 -2 -41 -6.5t-45.5 -7.5t-39 -11t-40.5 -18q-60 -40 -60 -103z" />
<glyph unicode="b" horiz-adv-x="1193" d="M131 0v1446h244l2 -508q12 12 33 29q117 88 260 88q170 0 297 -129q154 -160 153 -408q0 -154 -63.5 -287t-188.5 -202q-104 -59 -213 -60q-127 0 -235 92q-25 20 -45 45v-106h-244zM373 530q0 -199 104 -278q70 -49 146 -49q121 0 186 102q59 92 59 217q1 13 1 26 q0 99 -56 179q-72 104 -201 104q-96 0 -159 -67q-80 -82 -80 -234z" />
<glyph unicode="c" horiz-adv-x="1058" d="M49 512q0 201 111 344q150 199 407 199q100 0 191 -37q172 -72 250 -254l-220 -102q-18 61 -61 104q-70 70 -172 70q-109 0 -176 -80q-76 -88 -76 -238q0 -66 14 -112q25 -92 87.5 -149.5t156.5 -57.5q49 0 92 18.5t65.5 36.5t46 57t28 48.5t16.5 39.5l209 -110 q-29 -74 -66 -125q-68 -92 -174 -143.5t-223 -51.5q-106 0 -213 47q-94 43 -158.5 115t-91 150.5t-35 131t-8.5 99.5z" />
<glyph unicode="d" horiz-adv-x="1193" d="M74 492q0 211 88 344t198 184q80 35 179 35q104 0 186 -45q31 -18 51 -33l37 -37v506h244v-1446h-244v98q-6 -4 -14 -16t-15 -16q-102 -96 -256 -97q-100 0 -190 43q-106 49 -185 165t-79 315zM330 518q0 -131 59.5 -228t183.5 -97q98 0 160 69q78 86 78 231v15 q0 131 -45 211q-20 39 -53 63q-57 45 -138 45q-68 0 -124 -36q-121 -78 -121 -273z" />
<glyph unicode="e" d="M70 518q0 139 45 246q20 47 52 90t86 92t140 79t191 30q268 0 403 -197q92 -141 100 -395h-757q12 -92 65 -156q80 -98 223 -98q145 0 234 94q12 12 35 47l209 -121q-43 -61 -95 -106q-166 -154 -405 -154q-219 0 -367 137q-159 152 -159 412zM338 643h479q-6 49 -20 84 q-59 131 -209 131q-55 0 -103 -18q-120 -50 -147 -197z" />
<glyph unicode="f" horiz-adv-x="641" d="M8 850v174h154v119q0 86 6 119q16 94 91 140t233 46q61 0 139 -10v-209q-18 6 -78 6q-53 0 -85 -12.5t-44 -41t-14 -45t-2 -53.5v-59h223v-174h-223v-850h-246v850h-154z" />
<glyph unicode="g" horiz-adv-x="1193" d="M70 547q0 129 34 219q51 133 167 211t261 78q127 0 218 -66q43 -31 71 -74v109h244v-842v-51v-56q0 -17 -1 -53t-6 -57.5t-11.5 -51.5t-18.5 -53.5t-29 -45.5q-115 -156 -428 -156q-297 0 -405 154q-37 55 -64 168l271 -3q10 -33 24 -51q51 -76 185 -76q162 0 213 97 q14 25 19 60.5t6 59t1 101.5q-121 -109 -309 -109q-106 0 -186 37q-102 45 -179 154t-77 297zM322 553q0 -121 65 -195q33 -33 66 -49q53 -27 122 -26q117 0 183 69q70 70 69 193q0 70 -16 114q-8 27 -21.5 52.5t-40 56.5t-72.5 49.5t-104 18.5q-111 0 -182 -78 q-69 -76 -69 -205z" />
<glyph unicode="h" horiz-adv-x="1193" d="M129 0v1446h246v-526q37 41 98 75q102 59 225 60q90 0 172 -34t131 -101q31 -43 45.5 -95.5t16.5 -88.5t2 -103v-633h-242v563q0 59 -1 83t-16 64t-48 68q-47 43 -127 43q-123 0 -203 -98q-33 -39 -45 -86q-8 -31 -8 -88v-549h-246z" />
<glyph unicode="i" horiz-adv-x="512" d="M133 0v1024h244v-1024h-244zM133 1184v248h244v-248h-244z" />
<glyph unicode="j" horiz-adv-x="512" d="M2 -106q2 0 14.5 1t23.5 3t27.5 7t28.5 13q8 6 15.5 12.5t11.5 11.5t7 15t4 15t2 20.5t1 21.5v28v30v952h242v-1108q0 -117 -57 -170q-84 -80 -263 -80q-20 0 -57 4v224zM137 1186v250h242v-250h-242z" />
<glyph unicode="k" horiz-adv-x="1110" d="M131 0v1446h244v-813l399 391h313l-391 -391l430 -633h-299l-309 459l-143 -142v-317h-244z" />
<glyph unicode="l" horiz-adv-x="512" d="M133 0v1446h250v-1446h-250z" />
<glyph unicode="m" horiz-adv-x="1792" d="M129 0v1024h246l2 -115q18 25 33 37q39 37 116.5 73t171.5 36q90 0 167 -40t118 -116q45 55 94 88q102 68 236 68q125 0 216 -56.5t122 -171.5q14 -55 14 -180v-647h-244v627q0 25 -4 49t-19.5 63t-53 62.5t-95.5 23.5q-119 0 -182 -104q-49 -78 -49 -240v-481h-244v573 q0 12 -1 35t-1 33q0 92 -55 143q-43 39 -111 39q-70 0 -129 -49q-47 -39 -70.5 -105.5t-27.5 -113.5t-4 -125v-430h-246z" />
<glyph unicode="n" d="M129 0v1024h248v-121q16 25 45 53q104 98 270 99q100 0 170 -39t103 -86q10 -14 19 -30.5t15.5 -37t10.5 -35t7 -40t4 -36t2 -40t1 -36.5v-39v-34v-602h-242v522q0 119 -10 158q-33 135 -170 135q-74 0 -129 -47q-55 -45 -75.5 -116.5t-20.5 -207.5v-444h-248z" />
<glyph unicode="o" horiz-adv-x="1193" d="M72 516q0 113 45 229q20 47 52 93.5t87 98.5t144 85t196 33q121 0 225 -47q49 -20 95.5 -55t96.5 -91.5t80.5 -146.5t30.5 -199q0 -129 -41 -229q-18 -47 -51 -95.5t-88 -101.5t-144 -87t-196 -34q-127 0 -231 47q-47 20 -93.5 56.5t-96.5 94.5t-80.5 149t-30.5 200z M328 522q0 -80 20 -139q12 -35 36 -72t84 -76.5t136 -39.5q131 0 200 96q65 91 65 214q0 7 -1 15q-4 129 -76.5 221.5t-199.5 92.5q-78 0 -139 -39q-125 -83 -125 -273z" />
<glyph unicode="p" horiz-adv-x="1193" d="M131 -334v1358h246v-92q117 123 280 123q201 0 328 -150q137 -164 137 -401q0 -203 -102 -346q-133 -188 -365 -189q-156 0 -278 115v-418h-246zM373 518q0 -66 14 -121q25 -88 86.5 -141t151.5 -53q72 0 127 37q119 78 118 276q0 76 -18 131q-27 76 -90.5 124t-143.5 48 q-66 0 -126 -37q-115 -78 -119 -264z" />
<glyph unicode="q" d="M51 502q0 119 33 219q47 145 164 239.5t266 94.5q141 0 231 -82q27 -23 52 -58v109h243v-1358h-243l-2 430q-121 -127 -291 -127q-205 0 -326 144q-127 149 -127 389zM303 504q0 -129 61.5 -219t186.5 -90q78 0 139 45q107 78 107 263q0 124 -52 204q-33 45 -63 67 q-55 41 -133 41t-133 -41q-113 -82 -113 -270z" />
<glyph unicode="r" horiz-adv-x="724" d="M131 0v1024h238v-145q29 53 61 84q86 84 244 84h20v-252q-248 0 -307 -189q-18 -57 -18 -168v-438h-238z" />
<glyph unicode="s" horiz-adv-x="1067" d="M45 154l184 149q29 -35 47 -51q92 -80 248 -80q121 0 174 61q27 27 27 60q0 23 -16 43q-6 8 -11.5 14t-14.5 10.5t-14 7.5t-18.5 6t-20.5 5t-26.5 6t-30.5 6q-25 6 -94 18.5t-106 20.5q-283 78 -283 291q0 84 47 158q47 72 144.5 124t248.5 52q276 0 441 -191l-174 -162 q-23 45 -64 82q-84 74 -215 74q-80 0 -125 -30.5t-45 -75.5q2 -43 33 -64q35 -27 176 -51l166 -31q106 -25 162 -63q113 -82 112 -224q0 -74 -34 -139q-45 -86 -150.5 -148.5t-275.5 -62.5q-223 0 -394 105q-53 33 -98 80z" />
<glyph unicode="t" horiz-adv-x="641" d="M8 850v174h150v365h245v-365h220v-174h-220v-465q0 -125 25 -152q27 -31 94 -30q55 0 101 12v-207q-131 -16 -177 -16q-178 0 -245 82q-25 31 -31 59q-12 39 -12 195v522h-150z" />
<glyph unicode="u" horiz-adv-x="1193" d="M127 359v39v36v590h248v-553q0 -63 2 -92t21.5 -74t58.5 -67q49 -31 118 -31q135 0 199 115q39 74 39 268v434h246v-1024h-246l-2 104q-139 -129 -330 -129q-205 0 -295 136q-10 16 -19 31.5t-15.5 36t-10.5 33.5t-7 37.5t-4 35t-2 39t-1 35.5z" />
<glyph unicode="v" horiz-adv-x="980" d="M27 1024h254l213 -705l208 705h256l-337 -1024h-263z" />
<glyph unicode="w" horiz-adv-x="1536" d="M35 1024h256l178 -700l190 700h220l188 -700l182 700h256l-307 -1024h-244l-184 653l-195 -653h-243z" />
<glyph unicode="x" horiz-adv-x="1024" d="M18 0l353 549l-312 475h289l168 -258l162 258h293l-309 -475l350 -549h-283l-213 324l-205 -324h-293z" />
<glyph unicode="y" horiz-adv-x="980" d="M25 1024h264l229 -764l193 764h252l-261 -893q-2 -4 -16 -57.5t-20.5 -70.5t-21.5 -64.5t-26.5 -72t-29 -59t-34.5 -58t-38 -40.5q-76 -61 -209 -61q-78 0 -145 14v213q34 -4 63 -4q84 0 127 35q31 29 43 74z" />
<glyph unicode="z" horiz-adv-x="1024" d="M63 0v188l553 617h-497v219h821v-190l-541 -617h541v-217h-877z" />
<glyph unicode="{" horiz-adv-x="614" d="M29 573v154q76 4 114 29q35 23 48.5 61.5t13.5 126.5l-2 316v12q0 115 14 170q14 53 45 88q35 41 83 56.5t136 15.5h107l2 -148h-35q-68 0 -96 -31q-16 -25 -23 -45q-8 -31 -8 -145v-307q0 -127 -34 -182.5t-134 -96.5q57 -14 94 -49q41 -35 57.5 -83t16.5 -140v-309 q0 -115 8 -144q23 -78 125 -78h29v-147h-107q-92 0 -139 15.5t-82 56.5q-33 39 -45 88q-14 55 -14 172v10l2 317q0 106 -23 148q-32 59 -153 69z" />
<glyph unicode="|" horiz-adv-x="505" d="M139 -293v1888h223v-1888h-223z" />
<glyph unicode="}" horiz-adv-x="614" d="M25 -156l34 -2q61 -2 95 33q18 23 24 45q8 31 8 146v307q0 125 34 181t134 97q-59 16 -96 47q-41 37 -56.5 85t-15.5 141v309q0 106 -10 143q-18 78 -123 78h-28v148h106q90 0 137 -15.5t82 -56.5t47 -88q14 -66 15 -172v-10l-2 -318q0 -115 20 -149q31 -55 156 -68v-154 q-80 -8 -115 -28q-35 -23 -48 -62t-13 -127l2 -315v-12q0 -106 -15 -170q-12 -51 -47 -88q-35 -41 -82 -56.5t-135 -15.5h-108v147z" />
<glyph unicode="~" horiz-adv-x="1482" d="M147 651q66 88 109 125q92 80 215 80q88 0 260 -78l105 -47q113 -51 161 -51q72 0 136 47q47 33 112 113l92 -205q-78 -96 -149 -143q-92 -59 -189 -60q-86 0 -247 78l-72 35q-129 61 -213 61q-37 0 -68 -12q-53 -20 -141 -125l-20 -25z" />
<glyph unicode="&#xa1;" horiz-adv-x="512" d="M82 0v555l78 532h114l76 -532v-555h-268zM82 1163v283h268v-283h-268z" />
<glyph unicode="&#xa2;" horiz-adv-x="1024" d="M45 522q0 203 108.5 352.5t327.5 194.5v203h160v-203q80 -10 141.5 -39t105.5 -78t64.5 -79.5t51.5 -86.5l-218 -102q-43 104 -104 145q-14 10 -45 17v-631q57 16 97 60t51.5 74t17.5 57l209 -113q-31 -78 -62 -123q-96 -141 -252 -178q-8 -2 -27.5 -5t-31.5 -5v-203 h-160v203q-115 16 -202 71.5t-129 119t-67.5 142t-30.5 123.5t-5 84zM297 532q0 -258 180 -309v625q-49 -25 -65 -39q-115 -93 -115 -277z" />
<glyph unicode="&#xa3;" horiz-adv-x="1280" d="M100 217q0 66 29 117t84 78.5t117 27.5q63 0 149 -28q6 23 6 32q0 51 -30 95q-8 8 -27 24h-266v217h164q-86 109 -86 248q0 174 122 277q147 119 347 118q123 0 229 -51q125 -59 174 -162.5t49 -255.5q0 -45 -2 -65h-266q10 45 10 86q0 49 -14 90q-23 57 -75 93t-114 36 q-45 0 -82 -16q-109 -55 -108 -174q0 -98 100 -224h252v-217h-160q12 -90 13 -147q0 -63 -13 -123q84 -59 142 -60q39 0 63 27q45 45 45 166v49h265q0 -80 -9 -145q-4 -25 -12 -64t-38 -109.5t-73 -109.5q-74 -63 -182 -63q-61 0 -160 32q-20 8 -42.5 18.5t-49 25 t-41.5 20.5q-6 -4 -28.5 -16.5t-29.5 -16.5t-26.5 -14t-29 -13.5t-26.5 -11.5t-30 -11l-28 -7q-16 -4 -33 -5t-33 -1q-61 0 -113 22q-63 27 -98 84t-35 127zM295 205q0 -14 15.5 -29.5t41.5 -13.5q53 0 78 55q-45 35 -80 35q-27 0 -41 -15.5t-14 -31.5z" />
<glyph unicode="&#xa4;" horiz-adv-x="1363" d="M63 221l160 158q-100 145 -100 315q0 168 100 316l-157 155l143 144l158 -156q141 100 317 100q166 0 311 -100l160 158l145 -146l-159 -157q98 -156 98 -314q0 -162 -100 -317l159 -160l-145 -143l-160 159q-92 -55 -158.5 -75.5t-154.5 -20.5q-166 0 -313 99l-160 -158 zM346 696.5q0 -143.5 97.5 -242t242.5 -98.5q139 0 235.5 97.5t96.5 236.5q0 145 -96.5 244.5t-239.5 99.5t-239.5 -97t-96.5 -240.5z" />
<glyph unicode="&#xa5;" horiz-adv-x="1236" d="M6 1405h305l305 -584l314 584h301l-297 -524h172v-203h-291l-70 -125h361v-203h-361v-350h-264v350h-362v203h360l-63 125h-297v203h182z" />
<glyph unicode="&#xa6;" horiz-adv-x="505" d="M141 -295v821h224v-821h-224zM141 770v823h224v-823h-224z" />
<glyph unicode="&#xa7;" horiz-adv-x="1323" d="M88 770q0 102 57.5 174t159.5 131q-80 70 -80 180q0 147 120 223t276 76q268 0 485 -137l-115 -172q-82 37 -116.5 51.5t-103.5 34t-124 19.5q-49 0 -98 -15.5t-49 -52.5q0 -10 4 -20.5t8 -17.5t14.5 -15t17.5 -12.5t20.5 -11.5t18.5 -9t20 -9t18 -7l190 -82 q70 -31 99.5 -44.5t92 -46t94 -61t69.5 -70.5t54.5 -92.5t16.5 -107.5q0 -109 -59.5 -195t-159.5 -133q84 -90 84 -188.5t-66.5 -168t-154.5 -97t-185 -27.5q-129 0 -268 43t-242 119l119 168q190 -125 383 -125q53 0 96 19.5t43 66.5q0 39 -75.5 78.5t-184 84t-218 99.5 t-185.5 146t-76 204zM348 811q0 -45 32 -83t59.5 -53.5t82.5 -39.5q8 -4 115 -51q133 -61 235 -113q90 68 91 160q0 53 -27 88q-25 33 -91.5 72.5t-121.5 63.5t-147.5 59.5t-106.5 41.5q-121 -43 -121 -145z" />
<glyph unicode="&#xa8;" horiz-adv-x="555" d="M-45 1202v244h231v-244h-231zM365 1202v244h235v-244h-235z" />
<glyph unicode="&#xa9;" horiz-adv-x="1675" d="M109 723q0 305 213 517t518 212q299 0 513 -211t214 -504q0 -317 -209 -530t-522 -213q-303 0 -515 213t-212 516zM193 721q0 -272 187 -461.5t458 -189.5q264 0 455.5 189.5t191.5 449.5q0 285 -185.5 476t-461.5 191q-268 0 -456.5 -191.5t-188.5 -463.5zM424 719 q0 205 120 341t302 136q109 0 184.5 -37t159.5 -133l-129 -133q-59 70 -105.5 95.5t-105.5 25.5q-100 0 -160.5 -80t-60.5 -213t59.5 -212t159.5 -79q119 0 213 115l129 -129q-82 -94 -162 -133t-182 -39q-188 0 -305 132t-117 343z" />
<glyph unicode="&#xaa;" horiz-adv-x="681" d="M80 1044q0 78 57 127q39 31 171 60t147 35v10q0 76 -97 76q-109 0 -108 -84l-144 10q0 51 31 94q61 88 213 90q174 0 228 -90q16 -25 16 -72v-337q0 -47 24 -91h-141q-14 41 -14 46q-86 -57 -182 -58q-82 0 -141.5 49t-59.5 135zM229 1044q0 -59 82 -59h16q7 0 32.5 5 t43 14.5t33 31t15.5 49.5v62q-41 -12 -95 -25q-72 -14 -84 -20q-43 -21 -43 -58z" />
<glyph unicode="&#xab;" horiz-adv-x="894" d="M121 500v288l291 230v-230l-181 -147l181 -141v-228zM492 500v288l292 234v-234l-176 -145l176 -143v-230z" />
<glyph unicode="&#xac;" horiz-adv-x="1482" d="M141 528v224h1159v-719h-266v495h-893z" />
<glyph unicode="&#xad;" horiz-adv-x="761" d="M84 506v231h592v-231h-592z" />
<glyph unicode="&#xae;" horiz-adv-x="1693" d="M119 723q0 305 213 517t516 212q299 0 514 -210t215 -505q0 -317 -209 -530t-522 -213q-303 0 -515 213t-212 516zM201 721q0 -272 188.5 -461.5t456.5 -189.5q266 0 457.5 189.5t191.5 451.5q0 285 -185.5 475t-463.5 190q-268 0 -456.5 -191.5t-188.5 -463.5zM539 274 v914h301q154 0 221 -41q57 -35 90 -101.5t33 -146.5q0 -88 -37 -145.5t-119 -100.5l160 -379h-209l-129 347h-119l-2 -347h-190zM729 780h119q143 0 143 119q0 117 -137 117h-125v-236z" />
<glyph unicode="&#xaf;" horiz-adv-x="555" d="M-72 1200v184h699v-184h-699z" />
<glyph unicode="&#xb0;" horiz-adv-x="724" d="M10 1192q0 147 102.5 250.5t250 103.5t250 -103.5t102.5 -250.5q0 -143 -103.5 -247.5t-249 -104.5t-249 104.5t-103.5 247.5zM215 1192q0 -59 44 -103.5t103.5 -44.5t103.5 44.5t44 103.5q0 61 -43 103t-104.5 42t-104.5 -42t-43 -103z" />
<glyph unicode="&#xb1;" horiz-adv-x="1482" d="M190 0v219h1102v-219h-1102zM190 748v219h418v407h266v-407h418v-219h-418v-416h-266v416h-418z" />
<glyph unicode="&#xb2;" horiz-adv-x="768" d="M70 1042q0 4 3 31t5 48.5t11 56t21.5 61.5t36 57.5t53 51t73.5 34t100 13.5q129 2 214 -70t87 -203q2 -94 -53.5 -186t-104.5 -138t-178 -151q-18 -16 -29 -24h383v-146h-618v135q35 25 86 62q201 158 274 276q49 78 49 158q0 68 -34.5 97.5t-75.5 29.5 q-31 0 -53.5 -11.5t-35 -25.5t-20.5 -42t-10 -43t-4 -47t-2 -38z" />
<glyph unicode="&#xb3;" horiz-adv-x="768" d="M43 778h178q8 -106 58 -143q33 -23 81 -25q61 -2 101.5 36t44.5 102q2 47 -17.5 76.5t-52.5 41t-51 14.5t-37 3h-51v145h55q135 0 135 100q0 47 -26.5 74t-48 32t-43.5 5q-66 0 -92.5 -40t-36.5 -109l-174 38q10 74 49 134q86 133 264 133q172 2 254 -121q37 -57 37 -127 q0 -106 -88 -162q-14 -10 -60 -24q35 -12 56.5 -23.5t51 -34t44 -61.5t14.5 -92q0 -137 -93 -213t-228 -76q-231 0 -304 176q-20 51 -20 141z" />
<glyph unicode="&#xb4;" horiz-adv-x="555" d="M74 1174l102 272h305l-221 -272h-186z" />
<glyph unicode="&#xb5;" horiz-adv-x="1222" d="M154 -442v1464h252v-473q0 -217 40 -279q51 -78 152 -77q94 0 147.5 79.5t53.5 225.5v94v430h250v-713q0 -72 15 -99.5t54 -27.5q16 0 58 17v-201q-70 -18 -136 -18q-92 0 -145 45q-25 18 -37 39.5t-31 76.5q-39 -88 -91 -124.5t-138 -36.5q-129 0 -205 118l6 -540h-245z " />
<glyph unicode="&#xb6;" horiz-adv-x="1310" d="M145 1028q0 190 121 305q55 51 129 80q84 33 228 33h477v-143h-72v-1645h-151v1645h-263v-1645h-151v979q-55 10 -90 25q-106 41 -167 139t-61 227z" />
<glyph unicode="&#xb7;" horiz-adv-x="448" d="M88 444v299h272v-299h-272z" />
<glyph unicode="&#xb8;" horiz-adv-x="555" d="M72 -188l204 213h93l-93 -119q70 4 140 -25q68 -33 67 -106q0 -41 -28 -78q-66 -78 -289 -78q-55 0 -84 2l2 64q2 0 6 -1t8 -1h11q41 -4 96 8l4 2l8 4l10 5q6 3 10.5 8t7.5 11.5t3 14.5q-2 49 -135 49q-16 0 -41 -4v31z" />
<glyph unicode="&#xb9;" horiz-adv-x="768" d="M131 1096v121l43 2l40 3q13 1 47 10t54.5 25.5t41 51t24.5 84.5h145v-916h-174v527v23v22q0 4 -3 15t-8 13t-15.5 7.5t-26.5 7.5t-39 2z" />
<glyph unicode="&#xba;" horiz-adv-x="681" d="M49 1155q0 129 79 217t210 90q135 2 216 -87t79 -222q0 -49 -17 -104q-25 -78 -94 -138.5t-184 -60.5q-129 0 -209 89t-80 216zM199 1157q0 -25 8 -65q29 -113 135 -113q57 0 101 46t44 136q0 66 -32.5 119t-104.5 55q-57 2 -104 -43t-47 -135z" />
<glyph unicode="&#xbb;" horiz-adv-x="894" d="M106 264v232l177 147l-177 141v232l293 -232v-288zM481 268v228l178 149l-178 139v230l291 -230v-288z" />
<glyph unicode="&#xbc;" horiz-adv-x="1792" d="M131 1096v121l43 2l40 3q13 1 47 10t54.5 25.5t41 51t24.5 84.5h145v-916h-174v527v23v22q0 4 -3 15t-8 13t-15.5 7.5t-26.5 7.5t-39 2zM487 -12l646 1401l139 -66l-643 -1399zM1069 207v129l397 569h170v-555h115v-147h-121v-203h-164v207h-397zM1251 352h222l4 346z " />
<glyph unicode="&#xbd;" horiz-adv-x="1792" d="M131 1096v121l43 2l40 3q13 1 47 10t54.5 25.5t41 51t24.5 84.5h145v-916h-174v527v23v22q0 4 -3 15t-8 13t-15.5 7.5t-26.5 7.5t-39 2zM469 -12l645 1401l139 -66l-643 -1399zM1096 565q12 350 303 355q86 0 147.5 -28t92 -74t45 -88t14.5 -83q2 -125 -72 -225 t-295 -277h385v-145h-618v137q127 86 228 184.5t136 157.5q45 74 45 152q0 68 -34.5 97.5t-75.5 29.5q-35 0 -58.5 -10.5t-36 -37t-15.5 -42t-9 -52.5q0 -2 -3 -30.5t-3 -32.5z" />
<glyph unicode="&#xbe;" horiz-adv-x="1792" d="M43 778h178q8 -106 58 -143q33 -23 81 -25q61 -2 101.5 36t44.5 102q2 47 -17.5 76.5t-52.5 41t-51 14.5t-37 3h-51v145h55q135 0 135 100q0 47 -26.5 74t-48 32t-43.5 5q-66 0 -92.5 -40t-36.5 -109l-174 38q10 74 49 134q86 133 264 133q172 2 254 -121q37 -57 37 -127 q0 -106 -88 -162q-14 -10 -60 -24q35 -12 56.5 -23.5t51 -34t44 -61.5t14.5 -92q0 -137 -93 -213t-228 -76q-231 0 -304 176q-20 51 -20 141zM537 -12l645 1401l137 -66l-641 -1399zM1069 207v129l397 569h170v-555h115v-147h-121v-203h-164v207h-397zM1251 352h222l4 346z " />
<glyph unicode="&#xbf;" d="M55 403q0 195 164 324q14 10 57 40t66 48q41 33 60.5 76t19.5 125q0 29 -6 59h241q2 -147 -12 -227q-18 -109 -74 -166q-25 -25 -75 -56.5t-66 -45.5q-94 -78 -94 -174q0 -37 20 -84q59 -113 201 -113q113 0 174 78q55 72 62 192l247 -30q-8 -133 -53 -222 q-47 -100 -155.5 -176t-290.5 -76q-94 0 -181 27q-139 43 -222 149.5t-83 251.5zM399 1165v281h273v-281h-273z" />
<glyph unicode="&#xc0;" horiz-adv-x="1323" d="M12 0l490 1446h307l494 -1446h-289l-84 283h-543l-84 -283h-291zM379 1833h291l110 -248h-182zM459 520h399l-199 666z" />
<glyph unicode="&#xc1;" horiz-adv-x="1323" d="M12 0l490 1446h307l494 -1446h-289l-84 283h-543l-84 -283h-291zM459 520h399l-199 666zM547 1587l110 246h293l-221 -246h-182z" />
<glyph unicode="&#xc2;" horiz-adv-x="1323" d="M12 0l490 1446h307l494 -1446h-289l-84 283h-543l-84 -283h-291zM336 1583l207 250h239l215 -250h-247l-86 115l-86 -115h-242zM459 520h399l-199 666z" />
<glyph unicode="&#xc3;" horiz-adv-x="1323" d="M12 0l490 1446h307l494 -1446h-289l-84 283h-543l-84 -283h-291zM303 1575q0 2 2 18.5t6 38t8 35.5q57 164 199 164q84 0 166 -41q88 -35 121 -35q20 0 39 12q6 4 11 9.5t8 9.5t6 10t4 9t3.5 13.5t4.5 14.5l157 -2q-16 -164 -102 -225q-37 -33 -105 -33q-59 0 -172 43 q-92 37 -122 35q-20 0 -33 -6q-33 -16 -41 -70h-160zM459 520h399l-199 666z" />
<glyph unicode="&#xc4;" horiz-adv-x="1323" d="M12 0l490 1446h307l494 -1446h-289l-84 283h-543l-84 -283h-291zM350 1581v252h230v-252h-230zM459 520h399l-199 666zM760 1581v252h231v-252h-231z" />
<glyph unicode="&#xc5;" horiz-adv-x="1323" d="M12 0l490 1446h307l494 -1446h-289l-84 283h-543l-84 -283h-291zM459 520h399l-199 666zM461 1765q0 86 60.5 146.5t148.5 60.5q86 0 146.5 -61.5t60.5 -147.5t-60.5 -146.5t-148.5 -60.5q-86 0 -146.5 60.5t-60.5 148.5zM582 1763q2 -35 27.5 -60.5t60.5 -25.5 q35 2 59.5 27t24.5 61q0 35 -26 59.5t-60.5 24.5t-60 -25.5t-25.5 -60.5z" />
<glyph unicode="&#xc6;" horiz-adv-x="2134" d="M12 0l856 1446h1186v-242h-754v-344h656v-237h-656v-377h785v-246h-1057v338h-508l-192 -338h-316zM657 582h371v661z" />
<glyph unicode="&#xc7;" horiz-adv-x="1409" d="M76 748q0 154 47 288q80 223 256 336t387 111q326 -2 485 -234q53 -76 99 -213l-269 -69q-4 39 -22.5 81t-52 86t-97 72.5t-143.5 28.5q-158 0 -276.5 -125t-120.5 -373q-2 -254 114.5 -385t282.5 -133q82 0 149.5 33t108.5 84t63.5 93t32.5 81l256 -107l-8 -20 q-23 -57 -52.5 -107.5t-58 -87t-65.5 -67.5t-65.5 -51.5t-68.5 -38t-64.5 -26.5t-64.5 -17t-55.5 -10.5t-50.5 -6.5t-39 -4l-49 -61h17q39 0 77.5 -8.5t75.5 -39t39 -77.5q0 -47 -29 -82q-61 -80 -286 -80h-13q-57 0 -73 2v64q6 -2 32 -2q131 0 131.5 51t-135.5 51 q-25 0 -41 -4v31l154 157q-201 35 -281 84q-147 86 -239 265.5t-88 429.5z" />
<glyph unicode="&#xc8;" horiz-adv-x="1280" d="M160 0v1446h1028v-242h-762v-340h698v-233h-698v-387h813v-244h-1079zM356 1833h291l113 -248h-185z" />
<glyph unicode="&#xc9;" horiz-adv-x="1280" d="M160 0v1446h1028v-242h-762v-340h698v-233h-698v-387h813v-244h-1079zM526 1587l109 246h295l-221 -246h-183z" />
<glyph unicode="&#xca;" horiz-adv-x="1280" d="M160 0v1446h1028v-242h-762v-340h698v-233h-698v-387h813v-244h-1079zM315 1583l207 250h240l215 -250h-248l-88 115l-86 -115h-240z" />
<glyph unicode="&#xcb;" horiz-adv-x="1280" d="M160 0v1446h1028v-242h-762v-340h698v-233h-698v-387h813v-244h-1079zM322 1581v252h229v-252h-229zM731 1581v252h234v-252h-234z" />
<glyph unicode="&#xcc;" horiz-adv-x="598" d="M16 1833h291l111 -248h-182zM164 0v1446h266v-1446h-266z" />
<glyph unicode="&#xcd;" horiz-adv-x="598" d="M164 0v1446h266v-1446h-266zM184 1587l111 246h293l-221 -246h-183z" />
<glyph unicode="&#xce;" horiz-adv-x="598" d="M-27 1583l207 250h240l215 -250h-248l-86 115l-86 -115h-242zM164 0v1446h266v-1446h-266z" />
<glyph unicode="&#xcf;" horiz-adv-x="598" d="M-20 1581v252h229v-252h-229zM164 0v1446h266v-1446h-266zM389 1581v252h234v-252h-234z" />
<glyph unicode="&#xd0;" horiz-adv-x="1449" d="M6 668v184h139v594h476q205 0 301 -29q195 -59 322.5 -239.5t125.5 -468.5q0 -90 -17.5 -180.5t-56.5 -187.5t-120.5 -176t-194.5 -120q-123 -45 -350 -45h-486v668h-139zM416 244h114q221 0 301 22q129 35 190.5 141.5t61.5 303.5q0 383 -268 469q-76 23 -197 22h-202 v-350h315v-184h-315v-424z" />
<glyph unicode="&#xd1;" horiz-adv-x="1449" d="M168 0v1446h244l641 -1020l-33 1020h266v-1446h-237l-633 1014l16 -1014h-264zM367 1575q0 2 3 18.5t7 38t8 35.5q57 164 197 164q72 0 168 -41q86 -35 118 -35q20 0 39 12q6 4 11.5 9.5t8.5 9.5t6 10t4 9t3 13.5t4 14.5l160 -2q-16 -162 -105 -225q-37 -33 -104 -33 q-59 0 -172 43q-92 37 -123 35q-20 0 -33 -6q-27 -14 -41 -70h-159z" />
<glyph unicode="&#xd2;" horiz-adv-x="1579" d="M98 721q0 152 43 280q72 219 247 350.5t405 131.5q313 0 512 -230q182 -207 180 -530q0 -336 -201 -553q-109 -117 -246 -166q-113 -41 -252 -41q-301 0 -495 223q-193 220 -193 535zM377 731q0 -319 205 -455q94 -61 213 -61q90 0 166 35q100 47 173.5 153.5t77.5 290.5 q4 207 -86 350q-117 190 -335 191q-98 0 -185 -43q-94 -51 -161.5 -164t-67.5 -297zM506 1833h291l110 -248h-182z" />
<glyph unicode="&#xd3;" horiz-adv-x="1579" d="M98 721q0 152 43 280q72 219 247 350.5t405 131.5q313 0 512 -230q182 -207 180 -530q0 -336 -201 -553q-109 -117 -246 -166q-113 -41 -252 -41q-301 0 -495 223q-193 220 -193 535zM377 731q0 -319 205 -455q94 -61 213 -61q90 0 166 35q100 47 173.5 153.5t77.5 290.5 q4 207 -86 350q-117 190 -335 191q-98 0 -185 -43q-94 -51 -161.5 -164t-67.5 -297zM676 1587l108 246h293l-219 -246h-182z" />
<glyph unicode="&#xd4;" horiz-adv-x="1579" d="M98 721q0 152 43 280q72 219 247 350.5t405 131.5q313 0 512 -230q182 -207 180 -530q0 -336 -201 -553q-109 -117 -246 -166q-113 -41 -252 -41q-301 0 -495 223q-193 220 -193 535zM377 731q0 -319 205 -455q94 -61 213 -61q90 0 166 35q100 47 173.5 153.5t77.5 290.5 q4 207 -86 350q-117 190 -335 191q-98 0 -185 -43q-94 -51 -161.5 -164t-67.5 -297zM465 1583l205 250h241l215 -250h-247l-88 115l-86 -115h-240z" />
<glyph unicode="&#xd5;" horiz-adv-x="1579" d="M98 721q0 152 43 280q72 219 247 350.5t405 131.5q313 0 512 -230q182 -207 180 -530q0 -336 -201 -553q-109 -117 -246 -166q-113 -41 -252 -41q-301 0 -495 223q-193 220 -193 535zM377 731q0 -319 205 -455q94 -61 213 -61q90 0 166 35q100 47 173.5 153.5t77.5 290.5 q4 207 -86 350q-117 190 -335 191q-98 0 -185 -43q-94 -51 -161.5 -164t-67.5 -297zM432 1575q0 39 17 92q6 20 16 42t32.5 52.5t61.5 50t86 19.5q72 0 168 -41q88 -35 119 -35q20 0 39 12q6 4 11 9.5t8 9.5t6 10t4 9t3.5 13.5t4.5 14.5l159 -2q-16 -164 -102 -225 q-43 -33 -107 -33q-59 0 -172 43q-90 37 -120 35q-23 0 -35 -6q-27 -16 -41 -70h-158z" />
<glyph unicode="&#xd6;" horiz-adv-x="1579" d="M98 721q0 152 43 280q72 219 247 350.5t405 131.5q313 0 512 -230q182 -207 180 -530q0 -336 -201 -553q-109 -117 -246 -166q-113 -41 -252 -41q-301 0 -495 223q-193 220 -193 535zM377 731q0 -319 205 -455q94 -61 213 -61q90 0 166 35q100 47 173.5 153.5t77.5 290.5 q4 207 -86 350q-117 190 -335 191q-98 0 -185 -43q-94 -51 -161.5 -164t-67.5 -297zM471 1581v252h231v-252h-231zM881 1581v252h233v-252h-233z" />
<glyph unicode="&#xd7;" horiz-adv-x="1482" d="M264 930l185 190l315 -305l291 301l155 -151l-290 -301l317 -308l-186 -190l-318 307l-291 -301l-155 152l291 301z" />
<glyph unicode="&#xd8;" horiz-adv-x="1579" d="M47 203l143 127q-14 23 -38 73q-57 133 -58 314q0 172 54.5 312t117 211t137.5 124q166 119 396 119q272 0 469 -197l127 113l121 -137l-136 -121q106 -197 107 -420q0 -121 -29 -229q-45 -170 -155.5 -302.5t-270.5 -187.5q-106 -39 -246 -39q-131 0 -237.5 41 t-151.5 79t-102 99l-131 -114zM365 745q0 -86 26 -180q6 -18 19 -43l665 594q-125 125 -278 123q-100 0 -193 -51q-115 -63 -177 -185.5t-62 -257.5zM500 362q96 -152 284 -151q100 0 185 43q94 47 171 160.5t77 294.5q0 137 -48 245z" />
<glyph unicode="&#xd9;" horiz-adv-x="1492" d="M164 586v860h272v-889q0 -117 15 -160q53 -172 297 -172q233 0 292 164q18 53 19 182v875h270v-834v-32q0 -209 -24 -285q-43 -131 -184.5 -231.5t-383.5 -100.5q-303 0 -458 172q-63 63 -93 156q-22 74 -22 295zM465 1833h289l112 -248h-184z" />
<glyph unicode="&#xda;" horiz-adv-x="1492" d="M164 586v860h272v-889q0 -117 15 -160q53 -172 297 -172q233 0 292 164q18 53 19 182v875h270v-834v-32q0 -209 -24 -285q-43 -131 -184.5 -231.5t-383.5 -100.5q-303 0 -458 172q-63 63 -93 156q-22 74 -22 295zM633 1587l108 246h295l-221 -246h-182z" />
<glyph unicode="&#xdb;" horiz-adv-x="1492" d="M164 586v860h272v-889q0 -117 15 -160q53 -172 297 -172q233 0 292 164q18 53 19 182v875h270v-834v-32q0 -209 -24 -285q-43 -131 -184.5 -231.5t-383.5 -100.5q-303 0 -458 172q-63 63 -93 156q-22 74 -22 295zM422 1583l207 250h239l215 -250h-247l-86 115l-88 -115 h-240z" />
<glyph unicode="&#xdc;" horiz-adv-x="1492" d="M164 586v860h272v-889q0 -117 15 -160q53 -172 297 -172q233 0 292 164q18 53 19 182v875h270v-834v-32q0 -209 -24 -285q-43 -131 -184.5 -231.5t-383.5 -100.5q-303 0 -458 172q-63 63 -93 156q-22 74 -22 295zM426 1581v252h231v-252h-231zM836 1581v252h233v-252 h-233z" />
<glyph unicode="&#xdd;" horiz-adv-x="1280" d="M20 1446h308l313 -598l315 598h304l-488 -875v-571h-268v571zM526 1587l109 246h295l-221 -246h-183z" />
<glyph unicode="&#xde;" horiz-adv-x="1280" d="M168 0v1446h270v-205h217q102 0 166 -6t160 -48t162 -124q100 -121 100 -295q0 -172 -80 -289q-57 -84 -148 -129t-159 -54t-158 -9h-260v-287h-270zM438 508h195q131 0 200.5 28.5t106.5 108.5q25 53 25 127q0 82 -35 133q-41 63 -104.5 84t-180.5 21h-207v-502z" />
<glyph unicode="&#xdf;" d="M133 0v1012q0 143 17 196q37 129 156.5 195.5t262.5 66.5q92 0 166 -22q129 -39 212 -127t81 -213q0 -131 -96 -211q-39 -35 -88 -51q80 -39 108 -64q127 -113 127 -333q0 -205 -106.5 -335t-306.5 -130q-119 0 -195 32v238q4 -2 11 -7t12 -7q61 -31 116 -31q84 0 150 72 q61 72 61 186q0 137 -82 211q-78 72 -233 72q-25 0 -35 -2v184q164 -14 236 59q41 45 41 109q0 47 -23 80q-45 72 -152 71q-59 0 -106 -26q-14 -8 -25.5 -18.5t-19.5 -18.5t-15.5 -23.5t-11.5 -25t-7 -27.5t-4 -26.5t-2 -29t-1 -26.5v-30v-27v-973h-248z" />
<glyph unicode="&#xe0;" horiz-adv-x="1110" d="M53 297q0 162 140 256q78 53 258 88q199 41 282 70q0 55 -14 84q-37 70 -162 69q-131 0 -180 -63q-27 -33 -27 -90l-250 14q6 152 111 236q113 94 338 94q217 0 330 -80q51 -37 73 -82q27 -53 27 -182v-545q0 -59 7 -89t38 -77h-291l-6 80q-45 -37 -94 -57 q-104 -47 -207 -48q-229 0 -328 158q-47 76 -45 164zM303 1446h303l107 -272h-185zM313 307q0 -51 41 -86t127 -35q92 0 154.5 37t83.5 80q14 29 14 94v113q-76 -39 -194 -57q-12 -2 -41 -6.5t-45.5 -7.5t-39 -11t-40.5 -18q-60 -40 -60 -103z" />
<glyph unicode="&#xe1;" horiz-adv-x="1110" d="M53 297q0 162 140 256q78 53 258 88q199 41 282 70q0 55 -14 84q-37 70 -162 69q-131 0 -180 -63q-27 -33 -27 -90l-250 14q6 152 111 236q113 94 338 94q217 0 330 -80q51 -37 73 -82q27 -53 27 -182v-545q0 -59 7 -89t38 -77h-291l-6 80q-45 -37 -94 -57 q-104 -47 -207 -48q-229 0 -328 158q-47 76 -45 164zM313 307q0 -51 41 -86t127 -35q92 0 154.5 37t83.5 80q14 29 14 94v113q-76 -39 -194 -57q-12 -2 -41 -6.5t-45.5 -7.5t-39 -11t-40.5 -18q-60 -40 -60 -103zM449 1174l102 272h303l-221 -272h-184z" />
<glyph unicode="&#xe2;" horiz-adv-x="1110" d="M53 297q0 162 140 256q78 53 258 88q199 41 282 70q0 55 -14 84q-37 70 -162 69q-131 0 -180 -63q-27 -33 -27 -90l-250 14q6 152 111 236q113 94 338 94q217 0 330 -80q51 -37 73 -82q27 -53 27 -182v-545q0 -59 7 -89t38 -77h-291l-6 80q-45 -37 -94 -57 q-104 -47 -207 -48q-229 0 -328 158q-47 76 -45 164zM207 1171l227 275h242l227 -275h-250l-98 138l-100 -138h-248zM313 307q0 -51 41 -86t127 -35q92 0 154.5 37t83.5 80q14 29 14 94v113q-76 -39 -194 -57q-12 -2 -41 -6.5t-45.5 -7.5t-39 -11t-40.5 -18 q-60 -40 -60 -103z" />
<glyph unicode="&#xe3;" horiz-adv-x="1110" d="M53 297q0 162 140 256q78 53 258 88q199 41 282 70q0 55 -14 84q-37 70 -162 69q-131 0 -180 -63q-27 -33 -27 -90l-250 14q6 152 111 236q113 94 338 94q217 0 330 -80q51 -37 73 -82q27 -53 27 -182v-545q0 -59 7 -89t38 -77h-291l-6 80q-45 -37 -94 -57 q-104 -47 -207 -48q-229 0 -328 158q-47 76 -45 164zM197 1196q0 39 16 94q8 29 24.5 59.5t64.5 67.5t110 37q29 0 166 -41q76 -35 120 -35q47 0 64 35q4 8 6 16.5t6 16.5h158q-18 -98 -21 -105q-6 -18 -16 -37.5t-31.5 -47t-57.5 -45t-81 -17.5q-55 0 -172 45 q-86 35 -123 35q-16 0 -33 -8q-33 -18 -41 -70h-159zM313 307q0 -51 41 -86t127 -35q92 0 154.5 37t83.5 80q14 29 14 94v113q-76 -39 -194 -57q-12 -2 -41 -6.5t-45.5 -7.5t-39 -11t-40.5 -18q-60 -40 -60 -103z" />
<glyph unicode="&#xe4;" horiz-adv-x="1110" d="M53 297q0 162 140 256q78 53 258 88q199 41 282 70q0 55 -14 84q-37 70 -162 69q-131 0 -180 -63q-27 -33 -27 -90l-250 14q6 152 111 236q113 94 338 94q217 0 330 -80q51 -37 73 -82q27 -53 27 -182v-545q0 -59 7 -89t38 -77h-291l-6 80q-45 -37 -94 -57 q-104 -47 -207 -48q-229 0 -328 158q-47 76 -45 164zM221 1202v244h230v-244h-230zM313 307q0 -51 41 -86t127 -35q92 0 154.5 37t83.5 80q14 29 14 94v113q-76 -39 -194 -57q-12 -2 -41 -6.5t-45.5 -7.5t-39 -11t-40.5 -18q-60 -40 -60 -103zM631 1202v244h233v-244h-233z " />
<glyph unicode="&#xe5;" horiz-adv-x="1110" d="M53 297q0 162 140 256q78 53 258 88q199 41 282 70q0 55 -14 84q-37 70 -162 69q-131 0 -180 -63q-27 -33 -27 -90l-250 14q6 152 111 236q113 94 338 94q217 0 330 -80q51 -37 73 -82q27 -53 27 -182v-545q0 -59 7 -89t38 -77h-291l-6 80q-45 -37 -94 -57 q-104 -47 -207 -48q-229 0 -328 158q-47 76 -45 164zM313 307q0 -51 41 -86t127 -35q92 0 154.5 37t83.5 80q14 29 14 94v113q-76 -39 -194 -57q-12 -2 -41 -6.5t-45.5 -7.5t-39 -11t-40.5 -18q-60 -40 -60 -103zM334 1356q0 86 61.5 146.5t147.5 60.5q53 0 102 -27 q104 -61 105 -180q0 -86 -61.5 -147.5t-145.5 -61.5q-86 0 -147.5 60.5t-61.5 148.5zM455 1354q0 -35 25.5 -60.5t60.5 -25.5q37 0 61.5 25.5t24.5 60.5q0 37 -26 61.5t-60 24.5q-23 0 -43 -10q-43 -25 -43 -76z" />
<glyph unicode="&#xe6;" horiz-adv-x="1792" d="M59 281q0 119 84 202q94 94 373 152q152 29 229 63q-6 96 -55 138q-51 41 -137 41q-84 0 -139 -35q-27 -18 -43 -45q-23 -35 -23 -86h-237q12 133 86 217q106 127 335 127q174 0 269 -60q33 -20 88 -73q43 39 72.5 60.5t102.5 47t159 25.5q180 0 303 -92 q195 -145 207 -498h-748q10 -115 66 -182q70 -94 209 -95q104 0 180 66q43 37 67 74l195 -121q-37 -45 -66.5 -74t-90 -73t-142.5 -67.5t-180 -23.5q-150 0 -279 78q-45 27 -102 74q-27 -25 -68 -51q-137 -100 -332 -101q-248 0 -338 152q-45 76 -45 160zM319 285 q0 -53 42 -94t133 -41q137 0 206 104q39 57 45 238q-49 -20 -88 -30.5t-103.5 -23t-88.5 -18.5q-146 -33 -146 -135zM987 641h455q-20 96 -78.5 155.5t-153.5 59.5q-98 0 -161 -68q-56 -61 -62 -147z" />
<glyph unicode="&#xe7;" horiz-adv-x="1058" d="M49 512q0 223 143.5 383t372.5 160q174 0 283.5 -88t159.5 -203l-220 -102q-18 55 -50.5 94t-69.5 54t-61.5 20.5t-45.5 5.5q-133 2 -195.5 -96.5t-62.5 -221.5q0 -55 14.5 -108.5t43 -102.5t81 -78.5t121.5 -29.5q57 0 101.5 18.5t74 59t39.5 59t31 63.5l209 -110 q-31 -88 -84 -148q-49 -59 -109.5 -95t-102.5 -48t-116 -25l-53 -67h14q39 0 78 -8.5t76 -39t39 -77.5t-35 -90q-66 -72 -281 -72h-12q-57 0 -74 2v64q6 -2 33 -2q131 0 131 51t-133 51q-27 0 -43 -4v31l158 161q-137 27 -197 60q-137 76 -197.5 210t-60.5 269z" />
<glyph unicode="&#xe8;" d="M70 518q0 139 45 246q20 47 52 90t86 92t140 79t191 30q268 0 403 -197q92 -141 100 -395h-757q12 -92 65 -156q80 -98 223 -98q145 0 234 94q12 12 35 47l209 -121q-43 -61 -95 -106q-166 -154 -405 -154q-219 0 -367 137q-159 152 -159 412zM283 1446h303l104 -272 h-182zM338 643h479q-6 49 -20 84q-59 131 -209 131q-55 0 -103 -18q-120 -50 -147 -197z" />
<glyph unicode="&#xe9;" d="M70 518q0 139 45 246q20 47 52 90t86 92t140 79t191 30q268 0 403 -197q92 -141 100 -395h-757q12 -92 65 -156q80 -98 223 -98q145 0 234 94q12 12 35 47l209 -121q-43 -61 -95 -106q-166 -154 -405 -154q-219 0 -367 137q-159 152 -159 412zM338 643h479q-6 49 -20 84 q-59 131 -209 131q-55 0 -103 -18q-120 -50 -147 -197zM469 1174l102 272h306l-222 -272h-186z" />
<glyph unicode="&#xea;" d="M70 518q0 139 45 246q20 47 52 90t86 92t140 79t191 30q268 0 403 -197q92 -141 100 -395h-757q12 -92 65 -156q80 -98 223 -98q145 0 234 94q12 12 35 47l209 -121q-43 -61 -95 -106q-166 -154 -405 -154q-219 0 -367 137q-159 152 -159 412zM227 1171l228 275h241 l230 -275h-252l-96 138l-103 -138h-248zM338 643h479q-6 49 -20 84q-59 131 -209 131q-55 0 -103 -18q-120 -50 -147 -197z" />
<glyph unicode="&#xeb;" d="M70 518q0 139 45 246q20 47 52 90t86 92t140 79t191 30q268 0 403 -197q92 -141 100 -395h-757q12 -92 65 -156q80 -98 223 -98q145 0 234 94q12 12 35 47l209 -121q-43 -61 -95 -106q-166 -154 -405 -154q-219 0 -367 137q-159 152 -159 412zM256 1202v244h231v-244 h-231zM338 643h479q-6 49 -20 84q-59 131 -209 131q-55 0 -103 -18q-120 -50 -147 -197zM666 1202v244h233v-244h-233z" />
<glyph unicode="&#xec;" horiz-adv-x="512" d="M-39 1446h303l107 -272h-183zM133 0v1024h244v-1024h-244z" />
<glyph unicode="&#xed;" horiz-adv-x="512" d="M133 0v1024h244v-1024h-244zM150 1174l102 272h303l-221 -272h-184z" />
<glyph unicode="&#xee;" horiz-adv-x="512" d="M-92 1171l227 275h242l227 -275h-250l-96 138l-102 -138h-248zM133 0v1024h244v-1024h-244z" />
<glyph unicode="&#xef;" horiz-adv-x="512" d="M-63 1202v244h229v-244h-229zM133 0v1024h244v-1024h-244zM346 1202v244h234v-244h-234z" />
<glyph unicode="&#xf0;" horiz-adv-x="1193" d="M72 510q-2 141 49 254q49 109 160.5 201t281.5 92q121 0 209 -78q-25 102 -102 205l-334 -90l-39 108l293 80q-18 16 -49 47l-49 49l229 99q20 -18 38.5 -39t41 -46.5t37.5 -41.5l188 51l41 -109l-156 -43q68 -109 103 -182q113 -231 112 -489q0 -281 -141 -447 q-143 -164 -385 -162q-231 0 -375 148q-78 78 -114 180q-37 98 -39 213zM328 518q2 -129 72.5 -225t201.5 -98q135 -2 202.5 97t63.5 228q-4 78 -30 146q-70 160 -238 168q-133 2 -203.5 -92.5t-68.5 -223.5z" />
<glyph unicode="&#xf1;" d="M129 0v1024h248v-121q16 25 45 53q104 98 270 99q100 0 170 -39t103 -86q10 -14 19 -30.5t15.5 -37t10.5 -35t7 -40t4 -36t2 -40t1 -36.5v-39v-34v-602h-242v522q0 119 -10 158q-33 135 -170 135q-74 0 -129 -47q-55 -45 -75.5 -116.5t-20.5 -207.5v-444h-248zM217 1196 q0 2 2 19.5t6 38t11 36.5q6 20 16 41t32.5 52.5t61.5 51t86 19.5q61 0 166 -41q76 -35 121 -35q49 0 65 35q2 2 11 33h159q-2 -10 -9 -47t-13 -58q-55 -147 -187 -147q-55 0 -172 45q-86 35 -122 35q-16 0 -33 -8q-29 -14 -41 -70h-160z" />
<glyph unicode="&#xf2;" horiz-adv-x="1193" d="M72 516q0 113 45 229q20 47 52 93.5t87 98.5t144 85t196 33q121 0 225 -47q49 -20 95.5 -55t96.5 -91.5t80.5 -146.5t30.5 -199q0 -129 -41 -229q-18 -47 -51 -95.5t-88 -101.5t-144 -87t-196 -34q-127 0 -231 47q-47 20 -93.5 56.5t-96.5 94.5t-80.5 149t-30.5 200z M303 1446h303l107 -272h-185zM328 522q0 -80 20 -139q12 -35 36 -72t84 -76.5t136 -39.5q131 0 199.5 96t64.5 229q-4 129 -76.5 221.5t-199.5 92.5q-78 0 -139 -39q-125 -83 -125 -273z" />
<glyph unicode="&#xf3;" horiz-adv-x="1193" d="M72 516q0 113 45 229q20 47 52 93.5t87 98.5t144 85t196 33q121 0 225 -47q49 -20 95.5 -55t96.5 -91.5t80.5 -146.5t30.5 -199q0 -129 -41 -229q-18 -47 -51 -95.5t-88 -101.5t-144 -87t-196 -34q-127 0 -231 47q-47 20 -93.5 56.5t-96.5 94.5t-80.5 149t-30.5 200z M328 522q0 -80 20 -139q12 -35 36 -72t84 -76.5t136 -39.5q131 0 199.5 96t64.5 229q-4 129 -76.5 221.5t-199.5 92.5q-78 0 -139 -39q-125 -83 -125 -273zM492 1174l102 272h303l-221 -272h-184z" />
<glyph unicode="&#xf4;" horiz-adv-x="1193" d="M72 516q0 113 45 229q20 47 52 93.5t87 98.5t144 85t196 33q121 0 225 -47q49 -20 95.5 -55t96.5 -91.5t80.5 -146.5t30.5 -199q0 -129 -41 -229q-18 -47 -51 -95.5t-88 -101.5t-144 -87t-196 -34q-127 0 -231 47q-47 20 -93.5 56.5t-96.5 94.5t-80.5 149t-30.5 200z M250 1171l227 275h242l227 -275h-250l-98 138l-100 -138h-248zM328 522q0 -80 20 -139q12 -35 36 -72t84 -76.5t136 -39.5q131 0 199.5 96t64.5 229q-4 129 -76.5 221.5t-199.5 92.5q-78 0 -139 -39q-125 -83 -125 -273z" />
<glyph unicode="&#xf5;" horiz-adv-x="1193" d="M72 516q0 113 45 229q20 47 52 93.5t87 98.5t144 85t196 33q121 0 225 -47q49 -20 95.5 -55t96.5 -91.5t80.5 -146.5t30.5 -199q0 -129 -41 -229q-18 -47 -51 -95.5t-88 -101.5t-144 -87t-196 -34q-127 0 -231 47q-47 20 -93.5 56.5t-96.5 94.5t-80.5 149t-30.5 200z M240 1196q0 39 16 94q8 29 24.5 59.5t64.5 67.5t110 37q29 0 166 -41q76 -35 120.5 -35t63.5 35q4 8 6 16.5t6 16.5h158q-16 -86 -22.5 -104.5t-16.5 -38t-30.5 -47t-56.5 -45t-81 -17.5q-59 0 -172 45q-88 35 -123 35q-16 0 -33 -8q-33 -18 -41 -70h-159zM328 522 q0 -80 20 -139q12 -35 36 -72t84 -76.5t136 -39.5q131 0 199.5 96t64.5 229q-4 129 -76.5 221.5t-199.5 92.5q-78 0 -139 -39q-125 -83 -125 -273z" />
<glyph unicode="&#xf6;" horiz-adv-x="1193" d="M72 516q0 113 45 229q20 47 52 93.5t87 98.5t144 85t196 33q121 0 225 -47q49 -20 95.5 -55t96.5 -91.5t80.5 -146.5t30.5 -199q0 -129 -41 -229q-18 -47 -51 -95.5t-88 -101.5t-144 -87t-196 -34q-127 0 -231 47q-47 20 -93.5 56.5t-96.5 94.5t-80.5 149t-30.5 200z M281 1202v244h231v-244h-231zM328 522q0 -80 20 -139q12 -35 36 -72t84 -76.5t136 -39.5q131 0 199.5 96t64.5 229q-4 129 -76.5 221.5t-199.5 92.5q-78 0 -139 -39q-125 -83 -125 -273zM690 1202v244h234v-244h-234z" />
<glyph unicode="&#xf7;" horiz-adv-x="1482" d="M162 526v230h1159v-230h-1159zM616 127v274h248v-274h-248zM616 879v276h250v-276h-250z" />
<glyph unicode="&#xf8;" horiz-adv-x="1193" d="M18 162l115 92q-72 123 -72 264q0 104 35 201q18 51 51 101t90.5 106.5t150.5 92.5t208 36q207 0 362 -140l105 84l94 -114l-115 -92q78 -139 78 -285q0 -215 -131 -369q-143 -170 -411 -170q-117 0 -198 36t-163 122l-108 -86zM303 524q0 -55 16 -123l459 369 q-16 20 -33 33q-68 55 -157 51q-121 0 -205 -92q-80 -91 -80 -238zM393 272q82 -100 205 -100q117 0 199 88q82 86 82 240q0 76 -25 141z" />
<glyph unicode="&#xf9;" horiz-adv-x="1193" d="M127 359v39v36v590h248v-553q0 -63 2 -92t21.5 -74t58.5 -67q49 -31 118 -31q135 0 199 115q39 74 39 268v434h246v-1024h-246l-2 104q-139 -129 -330 -129q-205 0 -295 136q-10 16 -19 31.5t-15.5 36t-10.5 33.5t-7 37.5t-4 35t-2 39t-1 35.5zM303 1446h303l107 -272 h-185z" />
<glyph unicode="&#xfa;" horiz-adv-x="1193" d="M127 359v39v36v590h248v-553q0 -63 2 -92t21.5 -74t58.5 -67q49 -31 118 -31q135 0 199 115q39 74 39 268v434h246v-1024h-246l-2 104q-139 -129 -330 -129q-205 0 -295 136q-10 16 -19 31.5t-15.5 36t-10.5 33.5t-7 37.5t-4 35t-2 39t-1 35.5zM492 1174l102 272h303 l-221 -272h-184z" />
<glyph unicode="&#xfb;" horiz-adv-x="1193" d="M127 359v39v36v590h248v-553q0 -63 2 -92t21.5 -74t58.5 -67q49 -31 118 -31q135 0 199 115q39 74 39 268v434h246v-1024h-246l-2 104q-139 -129 -330 -129q-205 0 -295 136q-10 16 -19 31.5t-15.5 36t-10.5 33.5t-7 37.5t-4 35t-2 39t-1 35.5zM250 1171l227 275h242 l227 -275h-250l-98 138l-100 -138h-248z" />
<glyph unicode="&#xfc;" horiz-adv-x="1193" d="M127 359v39v36v590h248v-553q0 -63 2 -92t21.5 -74t58.5 -67q49 -31 118 -31q135 0 199 115q39 74 39 268v434h246v-1024h-246l-2 104q-139 -129 -330 -129q-205 0 -295 136q-10 16 -19 31.5t-15.5 36t-10.5 33.5t-7 37.5t-4 35t-2 39t-1 35.5zM274 1202v244h230v-244 h-230zM684 1202v244h234v-244h-234z" />
<glyph unicode="&#xfd;" horiz-adv-x="980" d="M25 1024h264l229 -764l193 764h252l-261 -893q-2 -4 -16 -57.5t-20.5 -70.5t-21.5 -64.5t-26.5 -72t-29 -59t-34.5 -58t-38 -40.5q-76 -61 -209 -61q-78 0 -145 14v213q133 -16 190 31q31 29 43 74zM385 1174l102 272h304l-222 -272h-184z" />
<glyph unicode="&#xfe;" horiz-adv-x="1193" d="M131 -334v1780h246v-514q127 127 289 123q150 -2 257 -90t153 -209t46 -252q0 -211 -122.5 -373t-342.5 -162q-154 0 -280 115v-418h-246zM373 518q-2 -76 26 -156q61 -160 224 -159q100 0 172.5 75.5t74.5 231.5q2 152 -72.5 228.5t-172.5 80.5q-96 2 -173 -72.5 t-79 -228.5z" />
<glyph unicode="&#xff;" horiz-adv-x="980" d="M25 1024h264l229 -764l193 764h252l-261 -893q-2 -4 -16 -57.5t-20.5 -70.5t-21.5 -64.5t-26.5 -72t-29 -59t-34.5 -58t-38 -40.5q-76 -61 -209 -61q-78 0 -145 14v213q133 -16 190 31q31 29 43 74zM172 1202v244h229v-244h-229zM582 1202v244h233v-244h-233z" />
<glyph unicode="&#x152;" horiz-adv-x="2260" d="M96 694q0 74 15 160q59 373 356 539q158 90 334 90q168 0 327 -99v62h1033v-246h-764v-346h665v-233h-665v-377h809v-244h-1078l-2 51q-160 -88 -350 -88q-238 0 -414 141q-266 213 -266 590zM385 698q0 -193 86 -317q129 -180 350 -178q147 0 244 82q51 43 63 100v547 v40v33q0 9 -1 23t-4 23.5t-9 21.5q-41 76 -126 115t-179 39q-106 0 -195 -51q-229 -130 -229 -478z" />
<glyph unicode="&#x153;" horiz-adv-x="1878" d="M70 502q0 266 168 422q137 131 342 131q211 0 362 -152q168 152 361 152q102 0 198 -37q207 -88 279 -326q25 -84 32 -239h-735q10 -66 23 -97q31 -78 96.5 -123t149.5 -45q150 0 245 140l199 -121q-41 -59 -107 -113q-84 -68 -164.5 -96.5t-189.5 -28.5q-180 0 -297 97 q-47 41 -82 88q-39 -53 -88 -93q-121 -92 -291 -92q-209 0 -346 127q-155 148 -155 406zM317 510q0 -55 11 -98q6 -29 19 -59.5t40 -70.5t77 -64.5t116 -24.5q129 0 200 100q61 82 62 211q0 76 -25 141q-31 84 -93 132t-149 48q-125 0 -191.5 -93t-66.5 -222zM1077 627h451 q-12 53 -27 86q-63 129 -201 129q-133 0 -194 -119q-19 -33 -29 -96z" />
<glyph unicode="&#x178;" horiz-adv-x="1280" d="M20 1446h308l313 -598l315 598h304l-488 -875v-571h-268v571zM322 1581v252h229v-252h-229zM731 1581v252h234v-252h-234z" />
<glyph unicode="&#x2c6;" horiz-adv-x="555" d="M-72 1171l228 275h241l230 -275h-252l-96 138l-103 -138h-248z" />
<glyph unicode="&#x2dc;" horiz-adv-x="555" d="M-90 1196q0 39 16 94q61 164 197 164q29 0 166 -41q76 -35 121 -35q47 0 63 35q4 8 6 16.5t6 16.5h162q-4 -12 -10 -49t-12 -56q-55 -147 -187 -147q-59 0 -172 45q-90 35 -123 35q-20 0 -32 -8q-33 -14 -41 -70h-160z" />
<glyph unicode="&#x2000;" horiz-adv-x="985" />
<glyph unicode="&#x2001;" horiz-adv-x="1972" />
<glyph unicode="&#x2002;" horiz-adv-x="985" />
<glyph unicode="&#x2003;" horiz-adv-x="1972" />
<glyph unicode="&#x2004;" horiz-adv-x="657" />
<glyph unicode="&#x2005;" horiz-adv-x="491" />
<glyph unicode="&#x2006;" horiz-adv-x="327" />
<glyph unicode="&#x2007;" horiz-adv-x="327" />
<glyph unicode="&#x2008;" horiz-adv-x="245" />
<glyph unicode="&#x2009;" horiz-adv-x="393" />
<glyph unicode="&#x200a;" horiz-adv-x="108" />
<glyph unicode="&#x2010;" horiz-adv-x="761" d="M84 506v231h592v-231h-592z" />
<glyph unicode="&#x2011;" horiz-adv-x="761" d="M84 506v231h592v-231h-592z" />
<glyph unicode="&#x2012;" horiz-adv-x="761" d="M84 506v231h592v-231h-592z" />
<glyph unicode="&#x2013;" horiz-adv-x="1249" d="M84 506v231h1081v-231h-1081z" />
<glyph unicode="&#x2014;" horiz-adv-x="1828" d="M84 506v231h1661v-231h-1661z" />
<glyph unicode="&#x2018;" horiz-adv-x="425" d="M74 887v307q0 61 8 86q23 74 94.5 119t153.5 53v-121q-111 -12 -111 -164h127v-280h-272z" />
<glyph unicode="&#x2019;" horiz-adv-x="425" d="M80 1165v281h268v-305q0 -113 -69.5 -179.5t-184.5 -82.5v114q59 27 84 53.5t25 86.5q0 23 -2 32h-121z" />
<glyph unicode="&#x201a;" horiz-adv-x="425" d="M76 0v281h272v-301v-9q0 -106 -55 -163.5t-166 -83.5q-20 -4 -35 -9v119q111 12 111 166h-127z" />
<glyph unicode="&#x201c;" horiz-adv-x="768" d="M76 893v297q0 123 60.5 186.5t187.5 87.5v-114q-74 -31 -89.5 -59.5t-15.5 -114.5h123v-283h-266zM426 893v311q0 68 18.5 112t67.5 83q68 51 166 57v-108q-76 -29 -94.5 -58.5t-18.5 -113.5h127v-283h-266z" />
<glyph unicode="&#x201d;" horiz-adv-x="768" d="M76 1161v285h266v-318q0 -123 -86 -188q-78 -59 -166 -57v108q113 29 113 142q0 6 -1 14t-1 14h-125zM426 1161v285h266v-293q0 -127 -60.5 -191.5t-189.5 -89.5v115q51 16 75 40t28 50.5t4 83.5h-123z" />
<glyph unicode="&#x201e;" horiz-adv-x="768" d="M76 0v285h266v-299q0 -82 -12 -113q-27 -68 -95.5 -111t-144.5 -43v109q113 29 113 143q0 4 -1 14.5t-1 14.5h-125zM426 0v285h266v-295q0 -125 -60.5 -191.5t-189.5 -89.5v115q57 18 82 47t25 86v43h-123z" />
<glyph unicode="&#x2022;" horiz-adv-x="681" d="M96 477v488h490v-488h-490z" />
<glyph unicode="&#x2026;" horiz-adv-x="2048" d="M225 0v227h230v-227h-230zM909 0v227h230v-227h-230zM1591 0v227h232v-227h-232z" />
<glyph unicode="&#x202f;" horiz-adv-x="393" />
<glyph unicode="&#x2039;" horiz-adv-x="512" d="M115 500v288l291 234v-234l-177 -145l177 -143v-230z" />
<glyph unicode="&#x203a;" horiz-adv-x="512" d="M102 264v232l177 147l-177 141v232l291 -232v-288z" />
<glyph unicode="&#x205f;" horiz-adv-x="491" />
<glyph unicode="&#x20ac;" horiz-adv-x="1429" d="M68 516l55 148h88l4 81h-147l55 148h108q59 252 233.5 391t432.5 139q143 0 251.5 -33.5t213.5 -117.5l-94 -273q-74 96 -157 140.5t-200 44.5q-145 0 -245.5 -76t-139.5 -215h707l-55 -148h-672q-2 -12 -2 -38q0 -29 2 -43h647l-55 -148h-574q86 -309 396 -309 q113 0 218 48t181 132v-305q-182 -125 -430 -125q-270 0 -438 145.5t-224 413.5h-159z" />
<glyph unicode="&#x2122;" horiz-adv-x="1406" d="M16 1327v119h521v-119h-181v-561h-147v561h-193zM621 766l2 680h217l116 -477l113 477h215l2 -680h-135l2 539l-139 -539h-119l-143 547l8 -547h-139z" />
<glyph unicode="&#xe000;" horiz-adv-x="1025" d="M0 1025h1025v-1025h-1025v1025z" />
<glyph unicode="&#xfb01;" horiz-adv-x="1153" d="M774 0v1024h244v-1024h-244zM774 1184v248h244v-248h-244zM8 850v174h154v119q0 86 6 119q16 94 91 140t233 46q61 0 139 -10v-209q-18 6 -78 6q-53 0 -85 -12.5t-44 -41t-14 -45t-2 -53.5v-59h223v-174h-223v-850h-246v850h-154z" />
<glyph unicode="&#xfb02;" horiz-adv-x="1153" d="M774 0v1446h250v-1446h-250zM8 850v174h154v119q0 86 6 119q16 94 91 140t233 46q61 0 139 -10v-209q-18 6 -78 6q-53 0 -85 -12.5t-44 -41t-14 -45t-2 -53.5v-59h223v-174h-223v-850h-246v850h-154z" />
<glyph unicode="&#xfb03;" horiz-adv-x="1794" d="M1415 0v1024h244v-1024h-244zM1415 1184v248h244v-248h-244zM649 850v174h154v119q0 86 6 119q16 94 91 140t233 46q61 0 139 -10v-209q-18 6 -78 6q-53 0 -85 -12.5t-44 -41t-14 -45t-2 -53.5v-59h223v-174h-223v-850h-246v850h-154zM8 850v174h154v119q0 86 6 119 q16 94 91 140t233 46q61 0 139 -10v-209q-18 6 -78 6q-53 0 -85 -12.5t-44 -41t-14 -45t-2 -53.5v-59h223v-174h-223v-850h-246v850h-154z" />
<glyph unicode="&#xfb04;" horiz-adv-x="1794" d="M1415 0v1446h250v-1446h-250zM649 850v174h154v119q0 86 6 119q16 94 91 140t233 46q61 0 139 -10v-209q-18 6 -78 6q-53 0 -85 -12.5t-44 -41t-14 -45t-2 -53.5v-59h223v-174h-223v-850h-246v850h-154zM8 850v174h154v119q0 86 6 119q16 94 91 140t233 46q61 0 139 -10 v-209q-18 6 -78 6q-53 0 -85 -12.5t-44 -41t-14 -45t-2 -53.5v-59h223v-174h-223v-850h-246v850h-154z" />
</font>
</defs>
</svg>
